<?xml version="1.0" encoding="UTF-8" standalone="no"?>
<svg
   width="390"
   height="844"
   viewBox="0 0 390 844"
   fill="none"
   version="1.1"
   id="svg4185"
   sodipodi:docname="OnBoard3.svg"
   inkscape:version="1.1.2 (0a00cf5339, 2022-02-04)"
   xmlns:inkscape="http://www.inkscape.org/namespaces/inkscape"
   xmlns:sodipodi="http://sodipodi.sourceforge.net/DTD/sodipodi-0.dtd"
   xmlns="http://www.w3.org/2000/svg"
   xmlns:svg="http://www.w3.org/2000/svg">
  <sodipodi:namedview
     id="namedview4187"
     pagecolor="#ffffff"
     bordercolor="#666666"
     borderopacity="1.0"
     inkscape:pageshadow="2"
     inkscape:pageopacity="0.0"
     inkscape:pagecheckerboard="0"
     showgrid="false"
     inkscape:zoom="0.98341232"
     inkscape:cx="195.23855"
     inkscape:cy="747.39759"
     inkscape:window-width="1920"
     inkscape:window-height="1012"
     inkscape:window-x="0"
     inkscape:window-y="0"
     inkscape:window-maximized="1"
     inkscape:current-layer="g4138" />
  <g
     clip-path="url(#clip0_12050_9535)"
     id="g4138">
    <rect
       width="390"
       height="844"
       fill="#945BF1"
       id="rect4010" />
    <path
       d="M524 743.5C524 845.397 441.397 928 339.5 928C237.603 928 155 845.397 155 743.5C155 641.603 237.603 559 339.5 559C441.397 559 524 641.603 524 743.5ZM168.451 743.5C168.451 837.968 245.032 914.549 339.5 914.549C433.968 914.549 510.549 837.968 510.549 743.5C510.549 649.032 433.968 572.451 339.5 572.451C245.032 572.451 168.451 649.032 168.451 743.5Z"
       fill="#AA76FF"
       id="path4012" />
    <path
       d="M485 744C485 824.634 419.857 890 339.5 890C259.143 890 194 824.634 194 744C194 663.366 259.143 598 339.5 598C419.857 598 485 663.366 485 744ZM227.592 744C227.592 806.017 277.695 856.292 339.5 856.292C401.305 856.292 451.408 806.017 451.408 744C451.408 681.983 401.305 631.708 339.5 631.708C277.695 631.708 227.592 681.983 227.592 744Z"
       fill="#AA76FF"
       id="path4014" />
    <path
       d="M475.575 278.712C455.74 302.907 427.306 318.478 396.238 322.159C365.171 325.841 333.885 317.346 308.945 298.457C284.006 279.569 267.352 251.755 262.478 220.852C257.603 189.949 264.888 158.359 282.803 132.711C300.718 107.064 327.87 89.3514 358.563 83.2916C389.255 77.2318 421.102 83.2953 447.42 100.21C473.738 117.124 492.482 143.575 499.719 174.012C506.955 204.448 502.122 236.505 486.232 263.454L470.657 254.271C484.172 231.349 488.283 204.082 482.128 178.194C475.973 152.305 460.03 129.807 437.644 115.42C415.259 101.033 388.171 95.8754 362.065 101.03C335.959 106.184 312.863 121.25 297.625 143.065C282.388 164.88 276.192 191.75 280.337 218.035C284.483 244.32 298.649 267.978 319.862 284.044C341.074 300.11 367.685 307.336 394.111 304.204C420.536 301.073 444.721 287.828 461.592 267.25L475.575 278.712Z"
       fill="#AA76FF"
       id="path4016" />
    <path
       d="M446.187 254.621C432.582 271.217 413.078 281.898 391.767 284.423C370.456 286.949 348.995 281.122 331.888 268.165C314.781 255.208 303.357 236.129 300.014 214.931C296.67 193.734 301.667 172.065 313.956 154.471C326.244 136.878 344.87 124.729 365.923 120.572C386.977 116.415 408.822 120.574 426.875 132.177C444.928 143.78 457.785 161.923 462.749 182.801C467.713 203.679 464.397 225.668 453.498 244.155L448.44 241.172C458.568 223.994 461.649 203.561 457.036 184.16C452.423 164.759 440.476 147.899 423.7 137.117C406.924 126.335 386.624 122.47 367.061 126.333C347.497 130.196 330.189 141.486 318.77 157.834C307.351 174.183 302.707 194.318 305.814 214.017C308.921 233.715 319.537 251.444 335.434 263.484C351.33 275.524 371.273 280.938 391.076 278.592C410.879 276.245 429.003 266.32 441.646 250.898L446.187 254.621Z"
       fill="#AA76FF"
       id="path4018" />
    <path
       d="M-144.597 625.597C-118.661 651.534 -85.2495 668.692 -49.0585 674.661C-12.8676 680.63 24.2839 675.109 57.1755 658.875C90.0671 642.64 117.046 616.508 134.32 584.151C151.594 551.793 158.295 514.836 153.483 478.474C148.67 442.111 132.585 408.17 107.488 381.42C82.3915 354.67 49.544 336.456 13.5616 329.337C-22.4208 322.218 -59.7293 326.552 -93.1215 341.73C-126.514 356.908 -154.311 382.167 -172.607 413.958L-162.491 419.78C-145.412 390.104 -119.463 366.524 -88.2918 352.356C-57.1204 338.187 -22.293 334.141 11.2963 340.787C44.8857 347.432 75.5486 364.435 98.9765 389.406C122.404 414.377 137.419 446.061 141.912 480.005C146.405 513.949 140.149 548.448 124.023 578.654C107.898 608.86 82.7138 633.254 52.0097 648.408C21.3056 663.563 -13.3752 668.716 -47.1592 663.145C-80.9433 657.573 -112.132 641.556 -136.344 617.344L-144.597 625.597Z"
       fill="#AA76FF"
       id="path4020" />
    <path
       d="M-106.267 588.267C-88.2371 606.297 -65.011 618.225 -39.8527 622.374C-14.6943 626.523 11.1319 622.685 33.9967 611.4C56.8615 600.115 75.6157 581.949 87.6239 559.455C99.6321 536.962 104.291 511.271 100.945 485.993C97.5999 460.715 86.4183 437.121 68.972 418.526C51.5257 399.93 28.6915 387.269 3.67816 382.32C-21.3352 377.371 -47.2705 380.384 -70.4833 390.935C-93.6961 401.486 -113.02 419.045 -125.739 441.145L-86.3764 463.799C-78.3922 449.926 -66.2621 438.903 -51.6905 432.28C-37.1188 425.657 -20.8382 423.765 -5.13625 426.872C10.5657 429.978 24.8996 437.927 35.8514 449.6C46.8031 461.273 53.8223 476.084 55.9223 491.952C58.0224 507.82 55.098 523.947 47.5599 538.067C40.0219 552.187 28.2491 563.591 13.8959 570.675C-0.45726 577.759 -16.6694 580.168 -32.4623 577.564C-48.2553 574.959 -62.8352 567.471 -74.1533 556.153L-106.267 588.267Z"
       fill="#AA76FF"
       id="path4022" />
    <g
       filter="url(#filter0_f_12050_9535)"
       id="g4026">
      <ellipse
         cx="185"
         cy="422"
         rx="133"
         ry="165"
         fill="white"
         fill-opacity="0.2"
         id="ellipse4024" />
    </g>
    <g
       filter="url(#filter1_f_12050_9535)"
       id="g4030">
      <ellipse
         cx="147.5"
         cy="577"
         rx="31.5"
         ry="13"
         fill="#8545ED"
         id="ellipse4028" />
    </g>
    <g
       filter="url(#filter2_f_12050_9535)"
       id="g4034">
      <ellipse
         cx="257"
         cy="547"
         rx="41"
         ry="17"
         fill="#8545ED"
         id="ellipse4032" />
    </g>
    <g
       filter="url(#filter3_f_12050_9535)"
       id="g4038">
      <ellipse
         cx="143"
         cy="463.5"
         rx="59"
         ry="24.5"
         fill="#8545ED"
         id="ellipse4036" />
    </g>
    <path
       fill-rule="evenodd"
       clip-rule="evenodd"
       d="M319 20H320C320.552 20 321 20.4477 321 21V27C321 27.5523 320.552 28 320 28H319C318.448 28 318 27.5523 318 27V21C318 20.4477 318.448 20 319 20Z"
       fill="#B8B8B8"
       id="path4040" />
    <path
       fill-rule="evenodd"
       clip-rule="evenodd"
       d="M314.5 22H315.5C316.052 22 316.5 22.4477 316.5 23V27C316.5 27.5523 316.052 28 315.5 28H314.5C313.948 28 313.5 27.5523 313.5 27V23C313.5 22.4477 313.948 22 314.5 22Z"
       fill="#B8B8B8"
       id="path4042" />
    <path
       fill-rule="evenodd"
       clip-rule="evenodd"
       d="M310 23.5H311C311.552 23.5 312 23.9477 312 24.5V27C312 27.5523 311.552 28 311 28H310C309.448 28 309 27.5523 309 27V24.5C309 23.9477 309.448 23.5 310 23.5Z"
       fill="#B8B8B8"
       id="path4044" />
    <path
       fill-rule="evenodd"
       clip-rule="evenodd"
       d="M323.5 18H324.5C325.052 18 325.5 18.4477 325.5 19V27C325.5 27.5523 325.052 28 324.5 28H323.5C322.948 28 322.5 27.5523 322.5 27V19C322.5 18.4477 322.948 18 323.5 18Z"
       fill="#EBEBF5"
       fill-opacity="0.3"
       id="path4046" />
    <path
       fill-rule="evenodd"
       clip-rule="evenodd"
       d="M319 20H320C320.552 20 321 20.4477 321 21V27C321 27.5523 320.552 28 320 28H319C318.448 28 318 27.5523 318 27V21C318 20.4477 318.448 20 319 20Z"
       fill="#1F1F1F"
       id="path4048" />
    <path
       fill-rule="evenodd"
       clip-rule="evenodd"
       d="M314.5 22H315.5C316.052 22 316.5 22.4477 316.5 23V27C316.5 27.5523 316.052 28 315.5 28H314.5C313.948 28 313.5 27.5523 313.5 27V23C313.5 22.4477 313.948 22 314.5 22Z"
       fill="#1F1F1F"
       id="path4050" />
    <path
       fill-rule="evenodd"
       clip-rule="evenodd"
       d="M310 23.5H311C311.552 23.5 312 23.9477 312 24.5V27C312 27.5523 311.552 28 311 28H310C309.448 28 309 27.5523 309 27V24.5C309 23.9477 309.448 23.5 310 23.5Z"
       fill="#1F1F1F"
       id="path4052" />
    <path
       d="M339.133 24.9396C339.772 24.9396 340.394 25.1076 340.941 25.428L341.163 25.5579C341.331 25.6563 341.361 25.8866 341.223 26.0242L339.329 27.913C339.213 28.029 339.024 28.029 338.908 27.913L337.026 26.0363C336.888 25.8994 336.917 25.6702 337.084 25.5711L337.303 25.4406C337.856 25.1121 338.485 24.9396 339.133 24.9396Z"
       fill="#1F1F1F"
       id="path4054" />
    <path
       d="M339.133 21.4698C340.724 21.4698 342.251 21.9976 343.495 22.9749L343.671 23.113C343.811 23.2232 343.824 23.4306 343.697 23.5565L342.567 24.6841C342.462 24.7884 342.297 24.8004 342.178 24.7123L342.04 24.6098C341.2 23.9852 340.186 23.6502 339.133 23.6502C338.073 23.6502 337.053 23.9894 336.21 24.6211L336.072 24.7245C335.953 24.8134 335.787 24.8017 335.682 24.6971L334.552 23.5699C334.426 23.4443 334.438 23.2373 334.578 23.127L334.753 22.9888C336 22.0027 337.534 21.4698 339.133 21.4698Z"
       fill="#1F1F1F"
       id="path4056" />
    <path
       d="M339.133 18C341.657 18 344.072 18.8906 345.983 20.5229L346.146 20.6623C346.278 20.7749 346.285 20.9756 346.163 21.098L345.036 22.2219C344.926 22.3308 344.752 22.3385 344.634 22.2395L344.494 22.1228C342.989 20.8647 341.104 20.1804 339.133 20.1804C337.155 20.1804 335.263 20.8694 333.756 22.1354L333.617 22.2527C333.498 22.3521 333.324 22.3447 333.214 22.2356L332.087 21.1118C331.965 20.9895 331.972 20.7892 332.104 20.6765L332.266 20.5371C334.18 18.8959 336.601 18 339.133 18Z"
       fill="#1F1F1F"
       id="path4058" />
    <path
       d="M375 21C375.552 21 376 21.4477 376 22V24C376 24.5523 375.552 25 375 25V21Z"
       fill="#EBEBF5"
       fill-opacity="0.3"
       id="path4060" />
    <path
       fill-rule="evenodd"
       clip-rule="evenodd"
       d="M354 17H371C372.657 17 374 18.3431 374 20V26C374 27.6569 372.657 29 371 29H354C352.343 29 351 27.6569 351 26V20C351 18.3431 352.343 17 354 17ZM354 18C352.895 18 352 18.8954 352 20V26C352 27.1046 352.895 28 354 28H371C372.105 28 373 27.1046 373 26V20C373 18.8954 372.105 18 371 18H354Z"
       fill="#EBEBF5"
       fill-opacity="0.3"
       id="path4062" />
    <rect
       x="353"
       y="19"
       width="19"
       height="8"
       rx="1"
       fill="#1F1F1F"
       id="rect4064" />
    <path
       d="M37.8672 28.0889C40.5552 28.0889 42.1519 25.9868 42.1519 22.4272C42.1519 21.0869 41.8955 19.959 41.4048 19.0874C40.6943 17.7324 39.4712 17 37.9258 17C35.626 17 34 18.5454 34 20.7134C34 22.7495 35.4648 24.229 37.479 24.229C38.7168 24.229 39.7202 23.6504 40.2183 22.647H40.2402C40.2402 22.647 40.2695 22.647 40.2769 22.647C40.2915 22.647 40.3428 22.647 40.3428 22.647C40.3428 25.064 39.4272 26.5068 37.8818 26.5068C36.9736 26.5068 36.2705 26.0088 36.0288 25.2104H34.1465C34.4614 26.9463 35.9336 28.0889 37.8672 28.0889ZM37.9331 22.7275C36.7173 22.7275 35.853 21.8633 35.853 20.6548C35.853 19.4756 36.7612 18.5747 37.9404 18.5747C39.1196 18.5747 40.0278 19.4902 40.0278 20.6841C40.0278 21.8633 39.1416 22.7275 37.9331 22.7275Z"
       fill="#1F1F1F"
       id="path4066" />
    <path
       d="M45.243 27.9863C45.9388 27.9863 46.4148 27.4883 46.4148 26.8291C46.4148 26.1626 45.9388 25.6719 45.243 25.6719C44.5545 25.6719 44.0711 26.1626 44.0711 26.8291C44.0711 27.4883 44.5545 27.9863 45.243 27.9863ZM45.243 22.4932C45.9388 22.4932 46.4148 22.0024 46.4148 21.3433C46.4148 20.6768 45.9388 20.186 45.243 20.186C44.5545 20.186 44.0711 20.6768 44.0711 21.3433C44.0711 22.0024 44.5545 22.4932 45.243 22.4932Z"
       fill="#1F1F1F"
       id="path4068" />
    <path
       d="M53.2706 27.8325H55.0797V25.8623H56.5079V24.2656H55.0797V17.2637H52.4137C50.546 20.0762 49.0592 22.4272 48.107 24.1777V25.8623H53.2706V27.8325ZM49.8575 24.1997C51.088 22.0317 52.1866 20.2959 53.1974 18.8018H53.2999V24.3096H49.8575V24.1997Z"
       fill="#1F1F1F"
       id="path4070" />
    <path
       d="M60.5365 27.8325H62.4262V17.2637H60.5438L57.7826 19.1973V21.0137L60.412 19.168H60.5365V27.8325Z"
       fill="#1F1F1F"
       id="path4072" />
    <g
       clip-path="url(#clip1_12050_9535)"
       id="g4104">
      <path
         d="M252.184 258L267.187 281.945L252.184 305.89C265.409 305.89 276.129 295.169 276.129 281.945C276.129 268.721 265.409 258 252.184 258Z"
         fill="#215AC9"
         id="path4092" />
      <path
         d="M270.168 281.945C270.168 268.721 262.116 258 252.184 258C238.959 258 228.239 268.721 228.239 281.945C228.239 295.17 238.959 305.89 252.184 305.89C262.116 305.89 270.168 295.17 270.168 281.945ZM252.184 293.967C245.544 293.967 240.162 288.585 240.162 281.945C240.162 275.305 245.544 269.923 252.184 269.923C258.824 269.923 264.206 275.305 264.206 281.945C264.206 288.585 258.824 293.967 252.184 293.967Z"
         fill="#6791FD"
         id="path4094" />
      <path
         d="M303.055 308.871L318.058 332.816L303.055 356.761C316.279 356.761 327 346.041 327 332.816C327 319.592 316.279 308.871 303.055 308.871Z"
         fill="#215AC9"
         id="path4096" />
      <path
         d="M321.039 332.816C321.039 319.592 312.987 308.871 303.055 308.871C289.831 308.871 279.11 319.592 279.11 332.816C279.11 346.041 289.831 356.761 303.055 356.761C312.987 356.761 321.039 346.041 321.039 332.816ZM303.055 344.838C296.415 344.838 291.033 339.456 291.033 332.816C291.033 326.177 296.415 320.794 303.055 320.794C309.695 320.794 315.077 326.177 315.077 332.816C315.077 339.456 309.695 344.838 303.055 344.838Z"
         fill="#6791FD"
         id="path4098" />
      <path
         d="M318.149 266.474L312.55 268.34L235.657 345.233L233.791 350.832C235.852 352.894 239.194 352.894 241.256 350.832L318.149 273.939C320.211 271.877 320.211 268.535 318.149 266.474Z"
         fill="#215AC9"
         id="path4100" />
      <path
         d="M310.769 266.559L233.876 343.452C231.814 345.514 231.814 348.856 233.876 350.918L318.234 266.559C316.173 264.497 312.831 264.497 310.769 266.559Z"
         fill="#6791FD"
         id="path4102" />
    </g>
    <g
       clip-path="url(#clip2_12050_9535)"
       id="g4114">
      <path
         d="M210.621 376.346C214.326 390.15 213.886 404.739 209.356 418.294C204.825 431.85 196.405 443.771 185.144 452.573C173.883 461.375 160.281 466.668 146.033 467.791C131.784 468.914 117.521 465.818 105.02 458.889C92.5194 451.96 82.335 441.504 75.7367 428.826C69.1383 416.148 66.418 401.808 67.9149 387.594C69.4117 373.38 75.0595 359.921 84.1541 348.896C93.2487 337.87 105.388 329.765 119.057 325.592C120.646 325.061 122.265 324.627 123.907 324.293C142.289 320.029 161.609 323.074 177.789 332.786C193.968 342.498 205.741 358.117 210.621 376.346Z"
         fill="#FFF621"
         id="path4106" />
      <path
         d="M123.907 324.292L127.786 338.768L122.936 340.067L119.057 325.592C120.646 325.061 122.265 324.627 123.907 324.292ZM78.5792 356.652L91.5588 364.143L89.0471 368.494L76.0693 360.999C76.8209 359.502 77.6589 358.051 78.5792 356.652ZM69.4099 411.584L83.8855 407.705L85.1849 412.555L70.7093 416.433C70.1781 414.845 69.7442 413.225 69.4099 411.584ZM101.769 456.912L109.261 443.932L113.611 446.444L106.116 459.421C104.62 458.67 103.168 457.832 101.769 456.912ZM156.701 466.081L152.823 451.605L157.672 450.306L161.551 464.781C159.962 465.313 158.343 465.747 156.701 466.081ZM202.029 433.722L189.049 426.23L191.561 421.88L204.539 429.374C203.787 430.871 202.949 432.323 202.029 433.722ZM211.198 378.789L196.723 382.668L195.423 377.819L209.899 373.94C210.43 375.529 210.864 377.148 211.198 378.789ZM178.839 333.462L171.347 346.441L166.997 343.93L174.492 330.952C175.988 331.703 177.44 332.541 178.839 333.462Z"
         fill="#FFC225"
         id="path4108" />
      <path
         d="M156.547 455.805C190.026 446.834 209.893 412.423 200.923 378.944C191.952 345.465 157.54 325.598 124.062 334.568C90.5831 343.539 70.7154 377.951 79.686 411.429C88.6565 444.908 123.068 464.776 156.547 455.805Z"
         fill="#FFDA2E"
         id="path4110" />
      <path
         d="M135.234 347.168L120.686 351.066C118.113 351.755 115.92 353.438 114.589 355.744C113.257 358.051 112.896 360.791 113.585 363.364L121.382 392.46L116.799 393.688C115.612 393.976 114.564 394.673 113.839 395.656C113.114 396.639 112.759 397.846 112.834 399.065C112.901 399.793 113.125 400.498 113.493 401.131C113.86 401.763 114.361 402.307 114.961 402.726C115.561 403.144 116.245 403.427 116.965 403.553C117.685 403.68 118.425 403.648 119.131 403.459L123.981 402.159L126.579 411.858L121.997 413.086C120.81 413.374 119.762 414.071 119.037 415.054C118.312 416.037 117.956 417.244 118.032 418.463C118.098 419.191 118.323 419.896 118.69 420.528C119.058 421.161 119.559 421.705 120.159 422.124C120.758 422.542 121.442 422.825 122.163 422.951C122.883 423.078 123.622 423.046 124.329 422.857L129.178 421.557L134.304 440.688C134.592 441.875 135.289 442.923 136.272 443.648C137.255 444.373 138.462 444.729 139.681 444.653C140.409 444.587 141.114 444.362 141.747 443.995C142.379 443.627 142.924 443.126 143.342 442.526C143.761 441.927 144.043 441.243 144.17 440.522C144.296 439.802 144.264 439.063 144.075 438.356L138.877 418.958L148.309 416.431C149.496 416.143 150.544 415.446 151.269 414.463C151.994 413.48 152.35 412.274 152.274 411.055C152.208 410.326 151.983 409.621 151.616 408.989C151.248 408.356 150.747 407.812 150.148 407.393C149.548 406.975 148.864 406.692 148.143 406.566C147.423 406.439 146.684 406.472 145.977 406.661L136.278 409.259L133.68 399.56L147.379 395.89C153.65 394.295 159.089 390.394 162.611 384.965C166.132 379.537 167.478 372.98 166.378 366.604C165.714 363.227 164.363 360.022 162.41 357.189C160.456 354.355 157.942 351.953 155.022 350.13C152.102 348.308 148.839 347.105 145.435 346.595C142.032 346.086 138.559 346.281 135.234 347.168ZM156.671 369.465C157.076 373.164 156.129 376.886 154.007 379.942C151.884 382.999 148.728 385.186 145.12 386.1L131.081 389.862L123.934 363.19C123.762 362.546 123.852 361.861 124.185 361.285C124.518 360.708 125.066 360.287 125.709 360.115L137.833 356.867C139.905 356.313 142.072 356.208 144.188 356.559C146.304 356.909 148.322 357.707 150.105 358.9C151.888 360.092 153.396 361.652 154.528 363.474C155.661 365.295 156.391 367.338 156.671 369.465Z"
         fill="#FFF621"
         id="path4112" />
    </g>
    <g
       clip-path="url(#clip3_12050_9535)"
       id="g4124">
      <path
         d="M295.361 523.366C288.232 530.501 279.161 535.38 269.277 537.394C259.394 539.408 249.137 538.469 239.784 534.692C230.431 530.916 222.397 524.47 216.683 516.158C210.969 507.847 207.828 498.037 207.652 487.952C207.475 477.867 210.272 467.953 215.692 459.447C221.112 450.941 228.917 444.218 238.132 440.117C247.347 436.017 257.566 434.719 267.513 436.387C277.461 438.055 286.697 442.614 294.071 449.496C294.956 450.28 295.793 451.116 296.576 452.002C305.669 461.732 310.625 474.614 310.398 487.929C310.172 501.245 304.78 513.951 295.361 523.366Z"
         fill="#FFF621"
         id="path4116" />
      <path
         d="M296.576 452.001L289.098 459.479L286.592 456.974L294.071 449.496C294.956 450.279 295.792 451.116 296.576 452.001ZM260.805 435.716L260.806 446.293H257.261L257.262 435.716C258.442 435.648 259.625 435.648 260.805 435.716ZM223.997 449.496L231.475 456.974L228.97 459.479L221.491 452.001C222.275 451.116 223.112 450.279 223.997 449.496ZM207.712 485.267L218.288 485.265L218.288 488.811L207.712 488.809C207.643 487.629 207.643 486.447 207.712 485.267ZM221.491 522.075L228.97 514.597L231.475 517.102L223.997 524.58C223.112 523.797 222.275 522.96 221.491 522.075ZM257.262 538.36L257.261 527.783H260.806L260.805 538.36C259.625 538.428 258.442 538.428 257.262 538.36ZM294.071 524.58L286.592 517.102L289.098 514.597L296.576 522.075C295.792 522.96 294.956 523.797 294.071 524.58ZM310.355 488.809L299.779 488.811L299.779 485.265L310.355 485.267C310.424 486.447 310.424 487.629 310.355 488.809Z"
         fill="#FFC225"
         id="path4118" />
      <path
         d="M227.717 518.355C245.013 535.651 273.055 535.651 290.35 518.355C307.646 501.06 307.646 473.018 290.35 455.722C273.055 438.426 245.013 438.426 227.717 455.722C210.421 473.018 210.421 501.06 227.717 518.355Z"
         fill="#FFDA2E"
         id="path4120" />
      <path
         d="M286.592 466.995L279.076 459.479C277.747 458.15 275.945 457.404 274.066 457.404C272.186 457.404 270.384 458.15 269.055 459.479L254.023 474.511L251.656 472.144C251.061 471.52 250.265 471.125 249.409 471.029C248.552 470.933 247.689 471.141 246.971 471.617C246.549 471.915 246.197 472.301 245.94 472.749C245.684 473.196 245.528 473.695 245.483 474.209C245.439 474.723 245.508 475.241 245.685 475.726C245.862 476.211 246.142 476.651 246.507 477.016L249.012 479.522L244.002 484.532L241.634 482.165C241.039 481.541 240.244 481.146 239.387 481.05C238.531 480.954 237.668 481.162 236.949 481.639C236.528 481.936 236.176 482.322 235.919 482.77C235.662 483.218 235.506 483.716 235.462 484.23C235.418 484.745 235.487 485.262 235.664 485.747C235.84 486.232 236.121 486.673 236.486 487.038L238.991 489.543L229.108 499.427C228.484 500.021 228.089 500.817 227.993 501.673C227.897 502.53 228.105 503.393 228.582 504.111C228.879 504.533 229.265 504.885 229.713 505.142C230.161 505.398 230.659 505.554 231.173 505.599C231.687 505.643 232.205 505.574 232.69 505.397C233.175 505.22 233.615 504.94 233.98 504.575L244.002 494.554L248.875 499.427C249.469 500.05 250.265 500.445 251.122 500.541C251.978 500.637 252.841 500.429 253.56 499.953C253.981 499.655 254.333 499.269 254.59 498.821C254.847 498.374 255.003 497.875 255.047 497.361C255.091 496.847 255.022 496.329 254.845 495.844C254.669 495.359 254.388 494.919 254.023 494.554L249.012 489.543L254.023 484.532L261.101 491.61C264.288 494.88 268.591 496.827 273.152 497.064C277.712 497.301 282.194 495.81 285.703 492.888C287.532 491.29 289.014 489.334 290.057 487.14C291.099 484.946 291.68 482.562 291.764 480.134C291.847 477.707 291.431 475.288 290.542 473.028C289.652 470.768 288.308 468.714 286.592 466.995ZM280.529 487.965C278.411 489.517 275.803 490.252 273.185 490.033C270.568 489.815 268.118 488.657 266.287 486.775L259.034 479.522L272.813 465.742C273.145 465.41 273.596 465.224 274.066 465.224C274.536 465.224 274.986 465.41 275.318 465.742L281.582 472.006C282.651 473.077 283.48 474.364 284.012 475.781C284.545 477.198 284.769 478.713 284.669 480.223C284.57 481.734 284.149 483.206 283.435 484.541C282.721 485.876 281.73 487.043 280.529 487.965Z"
         fill="#FFF621"
         id="path4122" />
    </g>
    <g
       clip-path="url(#clip4_12050_9535)"
       id="g4134">
      <path
         d="M138.034 501.445C145.054 499.56 152.474 499.784 159.368 502.088C166.262 504.392 172.325 508.675 176.801 514.402C181.278 520.128 183.969 527.046 184.54 534.293C185.111 541.539 183.537 548.793 180.013 555.15C176.489 561.508 171.172 566.687 164.724 570.043C158.276 573.399 150.983 574.782 143.754 574.021C136.526 573.26 129.681 570.387 124.074 565.762C118.466 561.137 114.345 554.963 112.222 548.011C111.952 547.203 111.731 546.38 111.561 545.545C109.393 536.196 110.942 526.371 115.881 518.142C120.82 509.914 128.763 503.927 138.034 501.445Z"
         fill="#FFF621"
         id="path4126" />
      <path
         d="M111.561 545.545L118.923 543.572L119.584 546.039L112.222 548.011C111.952 547.203 111.731 546.38 111.561 545.545ZM128.018 568.597L131.828 561.996L134.041 563.274L130.229 569.874C129.468 569.492 128.73 569.065 128.018 568.597ZM155.955 573.261L153.983 565.899L156.449 565.238L158.421 572.6C157.614 572.87 156.79 573.091 155.955 573.261ZM179.008 556.804L172.406 552.994L173.684 550.781L180.284 554.593C179.902 555.354 179.476 556.092 179.008 556.804ZM183.671 528.867L176.309 530.839L175.648 528.373L183.01 526.4C183.28 527.208 183.501 528.032 183.671 528.867ZM167.214 505.814L163.404 512.415L161.191 511.138L165.003 504.538C165.764 504.92 166.502 505.346 167.214 505.814ZM139.277 501.151L141.249 508.513L138.783 509.174L136.811 501.812C137.619 501.542 138.442 501.321 139.277 501.151ZM116.225 517.608L122.826 521.418L121.548 523.631L114.948 519.819C115.33 519.058 115.756 518.32 116.225 517.608Z"
         fill="#FFC225"
         id="path4128" />
      <path
         d="M178.445 528.945C173.883 511.919 156.382 501.815 139.356 506.377C122.329 510.939 112.225 528.44 116.787 545.466C121.349 562.492 138.85 572.596 155.877 568.034C172.903 563.472 183.007 545.971 178.445 528.945Z"
         fill="#FFDA2E"
         id="path4130" />
      <path
         d="M123.195 539.784L125.177 547.183C125.528 548.491 126.384 549.607 127.557 550.284C128.73 550.961 130.124 551.145 131.432 550.794L146.23 546.829L146.854 549.16C147.001 549.763 147.355 550.296 147.855 550.665C148.355 551.034 148.968 551.215 149.588 551.176C149.959 551.142 150.317 551.028 150.639 550.841C150.961 550.654 151.237 550.4 151.45 550.095C151.663 549.789 151.807 549.442 151.871 549.075C151.936 548.709 151.919 548.333 151.823 547.974L151.162 545.507L156.095 544.186L156.719 546.516C156.866 547.12 157.22 547.653 157.72 548.022C158.22 548.39 158.834 548.571 159.454 548.533C159.824 548.499 160.183 548.385 160.504 548.198C160.826 548.011 161.103 547.756 161.316 547.451C161.528 547.146 161.672 546.798 161.736 546.432C161.801 546.066 161.784 545.69 161.688 545.33L161.027 542.864L170.757 540.257C171.361 540.111 171.893 539.756 172.262 539.256C172.631 538.756 172.812 538.143 172.773 537.523C172.74 537.152 172.625 536.794 172.438 536.472C172.252 536.15 171.997 535.874 171.692 535.661C171.387 535.448 171.039 535.304 170.672 535.24C170.306 535.175 169.93 535.192 169.571 535.288L159.706 537.931L158.42 533.134C158.274 532.531 157.92 531.998 157.42 531.629C156.92 531.261 156.306 531.08 155.686 531.118C155.316 531.152 154.957 531.266 154.635 531.453C154.314 531.64 154.037 531.895 153.824 532.2C153.611 532.505 153.468 532.853 153.403 533.219C153.339 533.585 153.355 533.961 153.451 534.32L154.773 539.253L149.84 540.575L147.974 533.607C147.162 530.418 145.179 527.652 142.418 525.861C139.657 524.07 136.323 523.386 133.08 523.945C131.362 524.283 129.732 524.97 128.291 525.964C126.85 526.957 125.628 528.236 124.702 529.721C123.775 531.206 123.163 532.865 122.904 534.596C122.645 536.327 122.744 538.093 123.195 539.784ZM134.535 528.882C136.416 528.676 138.309 529.157 139.863 530.237C141.418 531.317 142.53 532.922 142.995 534.757L144.908 541.896L131.343 545.531C131.016 545.619 130.668 545.573 130.374 545.404C130.081 545.234 129.867 544.955 129.78 544.628L128.128 538.463C127.846 537.409 127.793 536.307 127.971 535.23C128.149 534.154 128.555 533.128 129.162 532.221C129.768 531.315 130.561 530.548 131.488 529.972C132.414 529.396 133.453 529.024 134.535 528.882Z"
         fill="#FFF621"
         id="path4132" />
    </g>
  </g>
  <defs
     id="defs4183">
    <filter
       id="filter0_f_12050_9535"
       x="-6.7"
       y="198.3"
       width="383.4"
       height="447.4"
       filterUnits="userSpaceOnUse"
       color-interpolation-filters="sRGB">
      <feFlood
         flood-opacity="0"
         result="BackgroundImageFix"
         id="feFlood4140" />
      <feBlend
         mode="normal"
         in="SourceGraphic"
         in2="BackgroundImageFix"
         result="shape"
         id="feBlend4142" />
      <feGaussianBlur
         stdDeviation="29.35"
         result="effect1_foregroundBlur_12050_9535"
         id="feGaussianBlur4144" />
    </filter>
    <filter
       id="filter1_f_12050_9535"
       x="104.1"
       y="552.1"
       width="86.8"
       height="49.8"
       filterUnits="userSpaceOnUse"
       color-interpolation-filters="sRGB">
      <feFlood
         flood-opacity="0"
         result="BackgroundImageFix"
         id="feFlood4147" />
      <feBlend
         mode="normal"
         in="SourceGraphic"
         in2="BackgroundImageFix"
         result="shape"
         id="feBlend4149" />
      <feGaussianBlur
         stdDeviation="5.95"
         result="effect1_foregroundBlur_12050_9535"
         id="feGaussianBlur4151" />
    </filter>
    <filter
       id="filter2_f_12050_9535"
       x="204.1"
       y="518.1"
       width="105.8"
       height="57.8"
       filterUnits="userSpaceOnUse"
       color-interpolation-filters="sRGB">
      <feFlood
         flood-opacity="0"
         result="BackgroundImageFix"
         id="feFlood4154" />
      <feBlend
         mode="normal"
         in="SourceGraphic"
         in2="BackgroundImageFix"
         result="shape"
         id="feBlend4156" />
      <feGaussianBlur
         stdDeviation="5.95"
         result="effect1_foregroundBlur_12050_9535"
         id="feGaussianBlur4158" />
    </filter>
    <filter
       id="filter3_f_12050_9535"
       x="72.1"
       y="427.1"
       width="141.8"
       height="72.8"
       filterUnits="userSpaceOnUse"
       color-interpolation-filters="sRGB">
      <feFlood
         flood-opacity="0"
         result="BackgroundImageFix"
         id="feFlood4161" />
      <feBlend
         mode="normal"
         in="SourceGraphic"
         in2="BackgroundImageFix"
         result="shape"
         id="feBlend4163" />
      <feGaussianBlur
         stdDeviation="5.95"
         result="effect1_foregroundBlur_12050_9535"
         id="feGaussianBlur4165" />
    </filter>
    <clipPath
       id="clip0_12050_9535">
      <rect
         width="390"
         height="844"
         fill="white"
         id="rect4168" />
    </clipPath>
    <clipPath
       id="clip1_12050_9535">
      <rect
         width="98.7611"
         height="98.7611"
         fill="white"
         transform="translate(228.239 258)"
         id="rect4171" />
    </clipPath>
    <clipPath
       id="clip2_12050_9535">
      <rect
         width="150.616"
         height="150.616"
         fill="white"
         transform="translate(65 319.878)"
         id="rect4174" />
    </clipPath>
    <clipPath
       id="clip3_12050_9535">
      <rect
         width="106.292"
         height="106.292"
         fill="white"
         transform="translate(205.88 433.89)"
         id="rect4177" />
    </clipPath>
    <clipPath
       id="clip4_12050_9535">
      <rect
         width="76.599"
         height="76.599"
         fill="white"
         transform="translate(109.324 498.896)"
         id="rect4180" />
    </clipPath>
  </defs>
</svg>
