<?xml version="1.0" encoding="UTF-8" standalone="no"?>
<svg
   width="390"
   height="844"
   viewBox="0 0 390 844"
   fill="none"
   version="1.1"
   id="svg7042"
   sodipodi:docname="OnBoard5.svg"
   inkscape:version="1.1.2 (0a00cf5339, 2022-02-04)"
   xmlns:inkscape="http://www.inkscape.org/namespaces/inkscape"
   xmlns:sodipodi="http://sodipodi.sourceforge.net/DTD/sodipodi-0.dtd"
   xmlns="http://www.w3.org/2000/svg"
   xmlns:svg="http://www.w3.org/2000/svg">
  <sodipodi:namedview
     id="namedview7044"
     pagecolor="#ffffff"
     bordercolor="#666666"
     borderopacity="1.0"
     inkscape:pageshadow="2"
     inkscape:pageopacity="0.0"
     inkscape:pagecheckerboard="0"
     showgrid="false"
     inkscape:zoom="0.98341232"
     inkscape:cx="195.23855"
     inkscape:cy="503.3494"
     inkscape:window-width="1920"
     inkscape:window-height="1012"
     inkscape:window-x="0"
     inkscape:window-y="0"
     inkscape:window-maximized="1"
     inkscape:current-layer="g7021" />
  <g
     clip-path="url(#clip0_12050_9841)"
     id="g7021">
    <rect
       width="390"
       height="844"
       fill="#945BF1"
       id="rect6929" />
    <path
       d="M491.661 220.549C466.828 250.842 431.226 270.338 392.327 274.947C353.429 279.557 314.256 268.921 283.031 245.271C251.805 221.621 230.953 186.796 224.85 148.104C218.747 109.411 227.868 69.8588 250.299 37.7461C272.729 5.63333 306.726 -16.5435 345.155 -24.1308C383.584 -31.7181 423.458 -24.1261 456.41 -2.948C489.362 18.2301 512.831 51.3482 521.891 89.4568C530.952 127.565 524.9 167.702 505.006 201.445L485.505 189.947C502.426 161.247 507.574 127.107 499.867 94.6932C492.161 62.279 472.199 34.1097 444.171 16.0961C416.142 -1.91745 382.226 -8.37496 349.54 -1.92139C316.853 4.53218 287.936 23.3952 268.858 50.7094C249.779 78.0237 242.021 111.666 247.212 144.577C252.403 177.488 270.139 207.109 296.699 227.225C323.258 247.34 356.577 256.387 389.663 252.467C422.75 248.546 453.031 231.963 474.154 206.197L491.661 220.549Z"
       fill="#AA76FF"
       id="path6931" />
    <path
       d="M454.541 190.118C437.575 210.813 413.253 224.132 386.679 227.281C360.105 230.43 333.344 223.164 312.011 207.007C290.679 190.85 276.433 167.059 272.264 140.625C268.095 114.192 274.326 87.1709 289.649 65.2325C304.973 43.2941 328.199 28.1436 354.452 22.9602C380.706 17.7767 407.947 22.9633 430.458 37.4316C452.97 51.8998 469.003 74.525 475.193 100.56C481.383 126.594 477.249 154.014 463.657 177.066L457.349 173.347C469.979 151.926 473.821 126.446 468.069 102.253C462.317 78.0608 447.418 57.0363 426.499 43.5917C405.58 30.1472 380.267 25.3275 355.871 30.1442C331.475 34.9609 309.892 49.0395 295.653 69.4257C281.413 89.8119 275.623 114.921 279.497 139.484C283.371 164.048 296.609 186.156 316.432 201.169C336.255 216.183 361.123 222.935 385.817 220.009C410.512 217.083 433.113 204.706 448.878 185.475L454.541 190.118Z"
       fill="#AA76FF"
       id="path6933" />
    <path
       d="M-169.335 637.425C-145.734 677.549 -110.154 709.27 -67.5944 728.13C-25.0354 746.99 22.3634 752.041 67.9413 742.574C113.519 733.107 154.985 709.597 186.513 675.348C218.041 641.099 238.045 597.833 243.715 551.629C249.385 505.425 240.436 458.605 218.124 417.749C195.813 376.894 161.262 344.055 119.325 323.849C77.389 303.642 30.1752 297.083 -15.6812 305.093C-61.5377 313.103 -103.732 335.28 -136.335 368.507L-110.471 393.885C-83.1722 366.063 -47.8424 347.495 -9.4462 340.788C28.95 334.081 68.4827 339.573 103.597 356.492C138.711 373.411 167.641 400.907 186.322 435.116C205.004 469.325 212.497 508.528 207.75 547.215C203.002 585.903 186.252 622.13 159.854 650.807C133.455 679.484 98.7351 699.17 60.5721 707.097C22.409 715.024 -17.2786 710.794 -52.9139 695.002C-88.5491 679.21 -118.341 652.65 -138.103 619.054L-169.335 637.425Z"
       fill="#AA76FF"
       id="path6935" />
    <path
       d="M-110.357 603.774C-93.9502 631.667 -69.2164 653.718 -39.6312 666.828C-10.046 679.939 22.9036 683.45 54.5874 676.869C86.2712 670.288 115.097 653.945 137.013 630.137C158.93 606.328 172.836 576.251 176.778 544.132C180.719 512.013 174.498 479.466 158.988 451.065C143.479 422.664 119.46 399.836 90.3074 385.789C61.155 371.743 28.334 367.183 -3.54337 372.751C-35.4208 378.32 -64.7524 393.736 -87.4165 416.834L-81.8483 422.297C-60.3261 400.363 -32.4723 385.724 -2.20102 380.436C28.0703 375.148 59.2375 379.478 86.9212 392.817C114.605 406.156 137.413 427.834 152.141 454.804C166.87 481.774 172.777 512.681 169.035 543.182C165.292 573.683 152.086 602.244 131.274 624.853C110.461 647.462 83.0883 662.982 53.0009 669.231C22.9134 675.481 -8.37599 672.146 -36.4706 659.696C-64.5652 647.246 -88.0528 626.306 -103.633 599.819L-110.357 603.774Z"
       fill="#AA76FF"
       id="path6937" />
    <path
       d="M444 780.5C444 842.08 394.08 892 332.5 892C270.92 892 221 842.08 221 780.5C221 718.92 270.92 669 332.5 669C394.08 669 444 718.92 444 780.5ZM229.129 780.5C229.129 837.59 275.41 883.871 332.5 883.871C389.59 883.871 435.871 837.59 435.871 780.5C435.871 723.41 389.59 677.129 332.5 677.129C275.41 677.129 229.129 723.41 229.129 780.5Z"
       fill="#AA76FF"
       id="path6939" />
    <path
       d="M420 781C420 829.601 380.825 869 332.5 869C284.175 869 245 829.601 245 781C245 732.399 284.175 693 332.5 693C380.825 693 420 732.399 420 781ZM265.202 781C265.202 818.38 295.332 848.683 332.5 848.683C369.668 848.683 399.798 818.38 399.798 781C399.798 743.62 369.668 713.317 332.5 713.317C295.332 713.317 265.202 743.62 265.202 781Z"
       fill="#AA76FF"
       id="path6941" />
    <g
       filter="url(#filter0_f_12050_9841)"
       id="g6945">
      <ellipse
         cx="199"
         cy="398.5"
         rx="104"
         ry="93.5"
         fill="#FFE600"
         fill-opacity="0.48"
         id="ellipse6943" />
    </g>
    <g
       filter="url(#filter1_f_12050_9841)"
       id="g6949">
      <ellipse
         cx="198.5"
         cy="507"
         rx="80.5"
         ry="31"
         fill="#7641CC"
         id="ellipse6947" />
    </g>
    <path
       fill-rule="evenodd"
       clip-rule="evenodd"
       d="M319 20H320C320.552 20 321 20.4477 321 21V27C321 27.5523 320.552 28 320 28H319C318.448 28 318 27.5523 318 27V21C318 20.4477 318.448 20 319 20Z"
       fill="#B8B8B8"
       id="path6951" />
    <path
       fill-rule="evenodd"
       clip-rule="evenodd"
       d="M314.5 22H315.5C316.052 22 316.5 22.4477 316.5 23V27C316.5 27.5523 316.052 28 315.5 28H314.5C313.948 28 313.5 27.5523 313.5 27V23C313.5 22.4477 313.948 22 314.5 22Z"
       fill="#B8B8B8"
       id="path6953" />
    <path
       fill-rule="evenodd"
       clip-rule="evenodd"
       d="M310 23.5H311C311.552 23.5 312 23.9477 312 24.5V27C312 27.5523 311.552 28 311 28H310C309.448 28 309 27.5523 309 27V24.5C309 23.9477 309.448 23.5 310 23.5Z"
       fill="#B8B8B8"
       id="path6955" />
    <path
       fill-rule="evenodd"
       clip-rule="evenodd"
       d="M323.5 18H324.5C325.052 18 325.5 18.4477 325.5 19V27C325.5 27.5523 325.052 28 324.5 28H323.5C322.948 28 322.5 27.5523 322.5 27V19C322.5 18.4477 322.948 18 323.5 18Z"
       fill="#EBEBF5"
       fill-opacity="0.3"
       id="path6957" />
    <path
       fill-rule="evenodd"
       clip-rule="evenodd"
       d="M319 20H320C320.552 20 321 20.4477 321 21V27C321 27.5523 320.552 28 320 28H319C318.448 28 318 27.5523 318 27V21C318 20.4477 318.448 20 319 20Z"
       fill="#1F1F1F"
       id="path6959" />
    <path
       fill-rule="evenodd"
       clip-rule="evenodd"
       d="M314.5 22H315.5C316.052 22 316.5 22.4477 316.5 23V27C316.5 27.5523 316.052 28 315.5 28H314.5C313.948 28 313.5 27.5523 313.5 27V23C313.5 22.4477 313.948 22 314.5 22Z"
       fill="#1F1F1F"
       id="path6961" />
    <path
       fill-rule="evenodd"
       clip-rule="evenodd"
       d="M310 23.5H311C311.552 23.5 312 23.9477 312 24.5V27C312 27.5523 311.552 28 311 28H310C309.448 28 309 27.5523 309 27V24.5C309 23.9477 309.448 23.5 310 23.5Z"
       fill="#1F1F1F"
       id="path6963" />
    <path
       d="M339.133 24.9396C339.772 24.9396 340.394 25.1076 340.941 25.428L341.163 25.5579C341.331 25.6563 341.361 25.8866 341.223 26.0242L339.329 27.913C339.213 28.029 339.024 28.029 338.908 27.913L337.026 26.0363C336.888 25.8994 336.917 25.6702 337.084 25.5711L337.303 25.4406C337.856 25.1121 338.485 24.9396 339.133 24.9396Z"
       fill="#1F1F1F"
       id="path6965" />
    <path
       d="M339.133 21.4698C340.724 21.4698 342.251 21.9976 343.495 22.9749L343.671 23.113C343.811 23.2232 343.824 23.4306 343.697 23.5565L342.567 24.6841C342.462 24.7884 342.297 24.8004 342.178 24.7123L342.04 24.6098C341.2 23.9852 340.186 23.6502 339.133 23.6502C338.073 23.6502 337.053 23.9894 336.21 24.6211L336.072 24.7245C335.953 24.8134 335.787 24.8017 335.682 24.6971L334.552 23.5699C334.426 23.4443 334.438 23.2373 334.578 23.127L334.753 22.9888C336 22.0027 337.534 21.4698 339.133 21.4698Z"
       fill="#1F1F1F"
       id="path6967" />
    <path
       d="M339.133 18C341.657 18 344.072 18.8906 345.983 20.5229L346.146 20.6623C346.278 20.7749 346.285 20.9756 346.163 21.098L345.036 22.2219C344.926 22.3308 344.752 22.3385 344.634 22.2395L344.494 22.1228C342.989 20.8647 341.104 20.1804 339.133 20.1804C337.155 20.1804 335.263 20.8694 333.756 22.1354L333.617 22.2527C333.498 22.3521 333.324 22.3447 333.214 22.2356L332.087 21.1118C331.965 20.9895 331.972 20.7892 332.104 20.6765L332.266 20.5371C334.18 18.8959 336.601 18 339.133 18Z"
       fill="#1F1F1F"
       id="path6969" />
    <path
       d="M375 21C375.552 21 376 21.4477 376 22V24C376 24.5523 375.552 25 375 25V21Z"
       fill="#EBEBF5"
       fill-opacity="0.3"
       id="path6971" />
    <path
       fill-rule="evenodd"
       clip-rule="evenodd"
       d="M354 17H371C372.657 17 374 18.3431 374 20V26C374 27.6569 372.657 29 371 29H354C352.343 29 351 27.6569 351 26V20C351 18.3431 352.343 17 354 17ZM354 18C352.895 18 352 18.8954 352 20V26C352 27.1046 352.895 28 354 28H371C372.105 28 373 27.1046 373 26V20C373 18.8954 372.105 18 371 18H354Z"
       fill="#EBEBF5"
       fill-opacity="0.3"
       id="path6973" />
    <rect
       x="353"
       y="19"
       width="19"
       height="8"
       rx="1"
       fill="#1F1F1F"
       id="rect6975" />
    <path
       d="M37.8672 28.0889C40.5552 28.0889 42.1519 25.9868 42.1519 22.4272C42.1519 21.0869 41.8955 19.959 41.4048 19.0874C40.6943 17.7324 39.4712 17 37.9258 17C35.626 17 34 18.5454 34 20.7134C34 22.7495 35.4648 24.229 37.479 24.229C38.7168 24.229 39.7202 23.6504 40.2183 22.647H40.2402C40.2402 22.647 40.2695 22.647 40.2769 22.647C40.2915 22.647 40.3428 22.647 40.3428 22.647C40.3428 25.064 39.4272 26.5068 37.8818 26.5068C36.9736 26.5068 36.2705 26.0088 36.0288 25.2104H34.1465C34.4614 26.9463 35.9336 28.0889 37.8672 28.0889ZM37.9331 22.7275C36.7173 22.7275 35.853 21.8633 35.853 20.6548C35.853 19.4756 36.7612 18.5747 37.9404 18.5747C39.1196 18.5747 40.0278 19.4902 40.0278 20.6841C40.0278 21.8633 39.1416 22.7275 37.9331 22.7275Z"
       fill="#1F1F1F"
       id="path6977" />
    <path
       d="M45.243 27.9863C45.9388 27.9863 46.4148 27.4883 46.4148 26.8291C46.4148 26.1626 45.9388 25.6719 45.243 25.6719C44.5545 25.6719 44.0711 26.1626 44.0711 26.8291C44.0711 27.4883 44.5545 27.9863 45.243 27.9863ZM45.243 22.4932C45.9388 22.4932 46.4148 22.0024 46.4148 21.3433C46.4148 20.6768 45.9388 20.186 45.243 20.186C44.5545 20.186 44.0711 20.6768 44.0711 21.3433C44.0711 22.0024 44.5545 22.4932 45.243 22.4932Z"
       fill="#1F1F1F"
       id="path6979" />
    <path
       d="M53.2706 27.8325H55.0797V25.8623H56.5079V24.2656H55.0797V17.2637H52.4137C50.546 20.0762 49.0592 22.4272 48.107 24.1777V25.8623H53.2706V27.8325ZM49.8575 24.1997C51.088 22.0317 52.1866 20.2959 53.1974 18.8018H53.2999V24.3096H49.8575V24.1997Z"
       fill="#1F1F1F"
       id="path6981" />
    <path
       d="M60.5365 27.8325H62.4262V17.2637H60.5438L57.7826 19.1973V21.0137L60.412 19.168H60.5365V27.8325Z"
       fill="#1F1F1F"
       id="path6983" />
    <path
       d="M228.062 369.141C246.909 400.302 282.3 414.919 282.3 450.78C282.3 487.111 244.418 505.3 197.7 505.3C150.982 505.3 113.1 487.111 113.1 450.78C113.1 416.752 147.316 401.853 168.043 373.7L228.062 369.141Z"
       fill="#82422C"
       id="path7005" />
    <path
       d="M156.152 256.717C148.429 258.085 141.32 261.812 135.801 267.386C131.162 271.99 126.165 276.218 120.855 280.029C112.287 286.011 102.071 289.181 91.6212 289.1H19.1002C16.6094 289.107 14.2228 290.1 12.4616 291.861C10.7004 293.623 9.70763 296.009 9.7002 298.5V354.9C9.70763 357.391 10.7004 359.777 12.4616 361.539C14.2228 363.3 16.6094 364.293 19.1002 364.3H103.7C115.774 363.806 127.827 365.674 139.185 369.799C145.818 372.454 152.909 373.78 160.053 373.7H218.192C221.184 373.763 224.096 372.726 226.374 370.786C228.652 368.845 230.139 366.136 230.553 363.172C230.725 361.533 230.549 359.877 230.039 358.311C229.529 356.744 228.695 355.302 227.591 354.079C226.488 352.856 225.139 351.878 223.633 351.21C222.127 350.542 220.498 350.198 218.85 350.2H222.892C225.884 350.263 228.796 349.226 231.074 347.286C233.352 345.345 234.839 342.636 235.253 339.672C235.425 338.033 235.249 336.377 234.739 334.811C234.229 333.244 233.395 331.802 232.291 330.579C231.188 329.356 229.839 328.378 228.333 327.71C226.827 327.042 225.198 326.698 223.55 326.7H227.592C230.584 326.763 233.496 325.726 235.774 323.786C238.052 321.845 239.539 319.136 239.953 316.172C240.125 314.533 239.949 312.877 239.439 311.311C238.929 309.744 238.095 308.302 236.991 307.079C235.888 305.856 234.539 304.878 233.033 304.21C231.527 303.542 229.898 303.198 228.25 303.2C229.898 303.202 231.527 302.858 233.033 302.19C234.539 301.522 235.888 300.544 236.991 299.321C238.095 298.098 238.929 296.656 239.439 295.089C239.949 293.523 240.125 291.867 239.953 290.228C239.539 287.264 238.052 284.555 235.774 282.614C233.496 280.674 230.584 279.637 227.592 279.7H221.2L156.152 256.717Z"
       fill="#FFCDAB"
       id="path7007" />
    <path
       d="M221.2 279.7L238.712 257.638C239.443 256.613 239.878 255.406 239.968 254.151C240.059 252.895 239.802 251.638 239.226 250.519C238.65 249.399 237.776 248.46 236.702 247.804C235.627 247.148 234.392 246.801 233.133 246.8H221.2L223.498 243.355C224.187 242.323 224.582 241.123 224.642 239.883C224.702 238.644 224.424 237.411 223.838 236.318C223.253 235.224 222.381 234.309 221.316 233.672C220.251 233.035 219.033 232.699 217.793 232.7H177.608C176.367 232.699 175.149 233.035 174.084 233.672C173.019 234.309 172.148 235.224 171.562 236.318C170.976 237.411 170.698 238.644 170.758 239.883C170.818 241.123 171.213 242.323 171.902 243.355L174.2 246.8H162.267C161.008 246.801 159.773 247.148 158.699 247.804C157.624 248.46 156.751 249.399 156.174 250.519C155.598 251.638 155.341 252.895 155.432 254.151C155.522 255.406 155.957 256.613 156.688 257.638L174.2 279.7H221.2Z"
       fill="#82422C"
       id="path7009" />
    <path
       d="M177.443 260.101C176.669 260.632 175.75 260.911 174.811 260.9C174.037 260.896 173.276 260.701 172.596 260.332C171.915 259.963 171.336 259.432 170.91 258.785L162.92 246.8H174.2L178.712 253.615C179.06 254.123 179.303 254.694 179.428 255.297C179.552 255.899 179.555 256.52 179.437 257.124C179.319 257.728 179.082 258.302 178.74 258.813C178.397 259.324 177.957 259.762 177.443 260.101ZM232.48 246.8L224.49 258.785C224.065 259.432 223.486 259.963 222.805 260.332C222.125 260.701 221.364 260.896 220.589 260.9C219.651 260.911 218.731 260.632 217.957 260.101C217.444 259.762 217.003 259.324 216.661 258.813C216.319 258.302 216.082 257.728 215.964 257.124C215.845 256.52 215.849 255.899 215.973 255.297C216.098 254.694 216.341 254.123 216.688 253.615L221.2 246.8H232.48Z"
       fill="#512A1E"
       id="path7011" />
    <path
       d="M174.2 279.7H160.1C158.854 279.7 157.658 279.205 156.777 278.323C155.896 277.442 155.4 276.247 155.4 275C155.4 273.753 155.896 272.558 156.777 271.677C157.658 270.795 158.854 270.3 160.1 270.3H166.727L174.2 279.7Z"
       fill="#DF9F7B"
       id="path7013" />
    <path
       d="M17.1784 288H-10.1784C-13.3936 288 -16 291.447 -16 295.7V357.3C-16 361.553 -13.3936 365 -10.1784 365H17.1784C20.3936 365 23 361.553 23 357.3V295.7C23 291.447 20.3936 288 17.1784 288Z"
       fill="#4D9CAE"
       id="path7015" />
    <path
       d="M49.9843 280H17.0157C13.1411 280 10 284.209 10 289.4V364.6C10 369.791 13.1411 374 17.0157 374H49.9843C53.8589 374 57 369.791 57 364.6V289.4C57 284.209 53.8589 280 49.9843 280Z"
       fill="#67B9CC"
       id="path7017" />
    <path
       d="M205.996 410H193.997C191.875 410 189.841 410.754 188.341 412.097C186.84 413.439 185.998 415.26 185.998 417.158V438.632H182.218C181.245 438.612 180.295 438.898 179.535 439.441C178.774 439.984 178.251 440.749 178.058 441.603C177.959 442.117 177.987 442.644 178.139 443.147C178.291 443.65 178.565 444.117 178.94 444.516C179.315 444.915 179.783 445.236 180.311 445.456C180.84 445.676 181.415 445.79 181.998 445.79H185.998V452.948H182.218C181.245 452.928 180.295 453.214 179.535 453.757C178.774 454.3 178.251 455.066 178.058 455.919C177.959 456.433 177.987 456.96 178.139 457.463C178.291 457.966 178.565 458.434 178.94 458.832C179.315 459.231 179.783 459.552 180.311 459.772C180.84 459.992 181.415 460.106 181.998 460.106H185.998V474.226C185.974 475.096 186.294 475.946 186.901 476.627C187.508 477.307 188.364 477.775 189.317 477.948C189.891 478.037 190.48 478.012 191.043 477.876C191.605 477.739 192.127 477.495 192.573 477.159C193.019 476.823 193.377 476.404 193.623 475.932C193.869 475.459 193.997 474.944 193.997 474.423V460.106H201.776C202.749 460.127 203.699 459.841 204.46 459.298C205.22 458.755 205.743 457.989 205.936 457.136C206.035 456.622 206.007 456.095 205.855 455.592C205.703 455.089 205.429 454.621 205.054 454.222C204.679 453.824 204.211 453.503 203.683 453.283C203.154 453.063 202.579 452.949 201.996 452.948H193.997V445.79H205.296C210.45 445.849 215.44 444.166 219.269 441.078C223.099 437.99 225.486 433.724 225.954 429.13C226.139 426.682 225.761 424.226 224.842 421.914C223.923 419.603 222.483 417.485 220.612 415.691C218.741 413.898 216.478 412.467 213.964 411.488C211.45 410.509 208.738 410.003 205.996 410ZM217.895 429.309C217.443 431.931 215.948 434.319 213.684 436.032C211.42 437.745 208.541 438.669 205.576 438.632H193.997V418.948C193.997 418.473 194.208 418.018 194.583 417.682C194.958 417.347 195.466 417.158 195.997 417.158H205.996C207.705 417.159 209.394 417.487 210.95 418.119C212.506 418.751 213.894 419.672 215.02 420.822C216.146 421.973 216.985 423.325 217.481 424.788C217.977 426.251 218.118 427.793 217.895 429.309Z"
       fill="#FFD757"
       id="path7019" />
  </g>
  <defs
     id="defs7040">
    <filter
       id="filter0_f_12050_9841"
       x="36.3"
       y="246.3"
       width="325.4"
       height="304.4"
       filterUnits="userSpaceOnUse"
       color-interpolation-filters="sRGB">
      <feFlood
         flood-opacity="0"
         result="BackgroundImageFix"
         id="feFlood7023" />
      <feBlend
         mode="normal"
         in="SourceGraphic"
         in2="BackgroundImageFix"
         result="shape"
         id="feBlend7025" />
      <feGaussianBlur
         stdDeviation="29.35"
         result="effect1_foregroundBlur_12050_9841"
         id="feGaussianBlur7027" />
    </filter>
    <filter
       id="filter1_f_12050_9841"
       x="97.3"
       y="455.3"
       width="202.4"
       height="103.4"
       filterUnits="userSpaceOnUse"
       color-interpolation-filters="sRGB">
      <feFlood
         flood-opacity="0"
         result="BackgroundImageFix"
         id="feFlood7030" />
      <feBlend
         mode="normal"
         in="SourceGraphic"
         in2="BackgroundImageFix"
         result="shape"
         id="feBlend7032" />
      <feGaussianBlur
         stdDeviation="10.35"
         result="effect1_foregroundBlur_12050_9841"
         id="feGaussianBlur7034" />
    </filter>
    <clipPath
       id="clip0_12050_9841">
      <rect
         width="390"
         height="844"
         fill="white"
         id="rect7037" />
    </clipPath>
  </defs>
</svg>
