<?xml version="1.0" encoding="UTF-8" standalone="no"?>
<svg
   width="390"
   height="844"
   viewBox="0 0 390 844"
   fill="none"
   version="1.1"
   id="svg5619"
   sodipodi:docname="OnBoard4.svg"
   inkscape:version="1.1.2 (0a00cf5339, 2022-02-04)"
   xmlns:inkscape="http://www.inkscape.org/namespaces/inkscape"
   xmlns:sodipodi="http://sodipodi.sourceforge.net/DTD/sodipodi-0.dtd"
   xmlns="http://www.w3.org/2000/svg"
   xmlns:svg="http://www.w3.org/2000/svg">
  <sodipodi:namedview
     id="namedview5621"
     pagecolor="#ffffff"
     bordercolor="#666666"
     borderopacity="1.0"
     inkscape:pageshadow="2"
     inkscape:pageopacity="0.0"
     inkscape:pagecheckerboard="0"
     showgrid="false"
     inkscape:zoom="0.98341232"
     inkscape:cx="195.23855"
     inkscape:cy="15.253012"
     inkscape:window-width="1920"
     inkscape:window-height="1012"
     inkscape:window-x="0"
     inkscape:window-y="0"
     inkscape:window-maximized="1"
     inkscape:current-layer="g5591" />
  <g
     clip-path="url(#clip0_12050_9681)"
     id="g5591">
    <rect
       width="390"
       height="844"
       transform="matrix(-1 0 0 1 390 0)"
       fill="#945BF1"
       id="rect5459" />
    <path
       d="M-234 743.5C-234 845.397 -151.397 928 -49.5005 928C52.396 928 135 845.397 135 743.5C135 641.603 52.396 559 -49.5005 559C-151.397 559 -234 641.603 -234 743.5ZM121.548 743.5C121.548 837.968 44.967 914.549 -49.5005 914.549C-143.968 914.549 -220.549 837.968 -220.549 743.5C-220.549 649.032 -143.968 572.451 -49.5005 572.451C44.967 572.451 121.548 649.032 121.548 743.5Z"
       fill="#AA76FF"
       id="path5461" />
    <path
       d="M-195 744C-195 824.634 -129.858 890 -49.5005 890C30.8569 890 95.9995 824.634 95.9995 744C95.9995 663.366 30.8569 598 -49.5005 598C-129.858 598 -195 663.366 -195 744ZM62.407 744C62.407 806.017 12.3043 856.292 -49.5005 856.292C-111.305 856.292 -161.408 806.017 -161.408 744C-161.408 681.983 -111.305 631.708 -49.5005 631.708C12.3043 631.708 62.407 681.983 62.407 744Z"
       fill="#AA76FF"
       id="path5463" />
    <path
       d="M-101.575 278.712C-81.7407 302.907 -53.3065 318.478 -22.2388 322.159C8.8288 325.841 40.1148 317.346 65.0542 298.457C89.9936 279.569 106.648 251.755 111.522 220.852C116.396 189.949 109.112 158.359 91.1967 132.711C73.2819 107.064 46.1294 89.3514 15.437 83.2916C-15.2555 77.2318 -47.1022 83.2953 -73.4204 100.21C-99.7386 117.124 -118.483 143.575 -125.719 174.012C-132.956 204.448 -128.122 236.505 -112.233 263.454L-96.6577 254.271C-110.173 231.349 -114.284 204.082 -108.129 178.194C-101.974 152.305 -86.0305 129.807 -63.6449 115.42C-41.2594 101.033 -14.1714 95.8754 11.9348 101.03C38.041 106.184 61.1362 121.25 76.374 143.065C91.6119 164.88 97.808 191.75 93.6621 218.035C89.5162 244.32 75.3507 267.978 54.1379 284.044C32.9251 300.11 6.31406 307.336 -20.1113 304.204C-46.5366 301.073 -70.722 287.828 -87.5925 267.25L-101.575 278.712Z"
       fill="#AA76FF"
       id="path5465" />
    <path
       d="M-72.188 254.621C-58.5826 271.217 -39.0781 281.898 -17.7673 284.423C3.54356 286.949 25.0042 281.122 42.1114 268.165C59.2186 255.208 70.6425 236.129 73.986 214.931C77.3294 193.734 72.3326 172.065 60.0439 154.471C47.7552 136.878 29.13 124.729 8.07644 120.572C-12.9771 116.415 -34.8223 120.574 -52.8753 132.177C-70.9283 143.78 -83.7857 161.923 -88.7496 182.801C-93.7134 203.679 -90.3979 225.668 -79.4987 244.155L-74.4401 241.172C-84.5682 223.994 -87.6492 203.561 -83.0365 184.16C-78.4238 164.759 -66.4761 147.899 -49.7004 137.117C-32.9246 126.335 -12.625 122.47 6.93898 126.333C26.5029 130.196 43.8104 141.486 55.2297 157.834C66.6489 174.183 71.2923 194.318 68.1853 214.017C65.0784 233.715 54.4628 251.444 38.5659 263.484C22.6691 275.524 2.72681 280.938 -17.0763 278.592C-36.8794 276.245 -55.0039 266.32 -67.6466 250.898L-72.188 254.621Z"
       fill="#AA76FF"
       id="path5467" />
    <path
       d="M605.337 637.425C581.735 677.549 546.155 709.27 503.596 728.13C461.037 746.99 413.638 752.041 368.06 742.574C322.482 733.107 281.016 709.597 249.488 675.348C217.961 641.099 197.957 597.833 192.287 551.629C186.617 505.425 195.566 458.605 217.877 417.749C240.188 376.894 274.74 344.055 316.676 323.849C358.613 303.642 405.826 297.083 451.683 305.093C497.539 313.103 539.733 335.28 572.336 368.507L546.473 393.885C519.174 366.063 483.844 347.495 445.448 340.788C407.051 334.081 367.519 339.573 332.405 356.492C297.291 373.411 268.36 400.907 249.679 435.116C230.998 469.325 223.504 508.528 228.252 547.215C232.999 585.903 249.749 622.13 276.148 650.807C302.546 679.484 337.266 699.17 375.429 707.097C413.592 715.024 453.28 710.794 488.915 695.002C524.551 679.21 554.342 652.65 574.104 619.054L605.337 637.425Z"
       fill="#AA76FF"
       id="path5469" />
    <path
       d="M546.359 603.774C529.952 631.667 505.218 653.718 475.633 666.828C446.047 679.939 413.098 683.45 381.414 676.869C349.73 670.288 320.905 653.945 298.988 630.137C277.072 606.328 263.165 576.251 259.224 544.132C255.282 512.013 261.504 479.466 277.013 451.065C292.523 422.664 316.542 399.836 345.694 385.789C374.846 371.743 407.667 367.183 439.545 372.751C471.422 378.32 500.754 393.736 523.418 416.834L517.85 422.297C496.328 400.363 468.474 385.724 438.202 380.436C407.931 375.148 376.764 379.478 349.08 392.817C321.397 406.156 298.588 427.834 283.86 454.804C269.132 481.774 263.224 512.681 266.967 543.182C270.71 573.683 283.915 602.244 304.728 624.853C325.54 647.462 352.913 662.982 383.001 669.231C413.088 675.481 444.377 672.146 472.472 659.696C500.567 647.246 524.054 626.306 539.634 599.819L546.359 603.774Z"
       fill="#AA76FF"
       id="path5471" />
    <g
       filter="url(#filter0_f_12050_9681)"
       id="g5475">
      <ellipse
         cx="192"
         cy="410.5"
         rx="135"
         ry="167.5"
         fill="#FFB629"
         fill-opacity="0.2"
         id="ellipse5473" />
    </g>
    <g
       filter="url(#filter1_f_12050_9681)"
       id="g5479">
      <ellipse
         cx="44"
         cy="17"
         rx="44"
         ry="17"
         transform="matrix(-1 0 0 1 207 492)"
         fill="#7035D1"
         id="ellipse5477" />
    </g>
    <g
       filter="url(#filter2_f_12050_9681)"
       id="g5483">
      <ellipse
         cx="32"
         cy="12.5"
         rx="32"
         ry="12.5"
         transform="matrix(-1 0 0 1 286 498)"
         fill="#7035D1"
         id="ellipse5481" />
    </g>
    <path
       fill-rule="evenodd"
       clip-rule="evenodd"
       d="M319 20H320C320.552 20 321 20.4477 321 21V27C321 27.5523 320.552 28 320 28H319C318.448 28 318 27.5523 318 27V21C318 20.4477 318.448 20 319 20Z"
       fill="#B8B8B8"
       id="path5485" />
    <path
       fill-rule="evenodd"
       clip-rule="evenodd"
       d="M314.5 22H315.5C316.052 22 316.5 22.4477 316.5 23V27C316.5 27.5523 316.052 28 315.5 28H314.5C313.948 28 313.5 27.5523 313.5 27V23C313.5 22.4477 313.948 22 314.5 22Z"
       fill="#B8B8B8"
       id="path5487" />
    <path
       fill-rule="evenodd"
       clip-rule="evenodd"
       d="M310 23.5H311C311.552 23.5 312 23.9477 312 24.5V27C312 27.5523 311.552 28 311 28H310C309.448 28 309 27.5523 309 27V24.5C309 23.9477 309.448 23.5 310 23.5Z"
       fill="#B8B8B8"
       id="path5489" />
    <path
       fill-rule="evenodd"
       clip-rule="evenodd"
       d="M323.5 18H324.5C325.052 18 325.5 18.4477 325.5 19V27C325.5 27.5523 325.052 28 324.5 28H323.5C322.948 28 322.5 27.5523 322.5 27V19C322.5 18.4477 322.948 18 323.5 18Z"
       fill="#EBEBF5"
       fill-opacity="0.3"
       id="path5491" />
    <path
       fill-rule="evenodd"
       clip-rule="evenodd"
       d="M319 20H320C320.552 20 321 20.4477 321 21V27C321 27.5523 320.552 28 320 28H319C318.448 28 318 27.5523 318 27V21C318 20.4477 318.448 20 319 20Z"
       fill="#1F1F1F"
       id="path5493" />
    <path
       fill-rule="evenodd"
       clip-rule="evenodd"
       d="M314.5 22H315.5C316.052 22 316.5 22.4477 316.5 23V27C316.5 27.5523 316.052 28 315.5 28H314.5C313.948 28 313.5 27.5523 313.5 27V23C313.5 22.4477 313.948 22 314.5 22Z"
       fill="#1F1F1F"
       id="path5495" />
    <path
       fill-rule="evenodd"
       clip-rule="evenodd"
       d="M310 23.5H311C311.552 23.5 312 23.9477 312 24.5V27C312 27.5523 311.552 28 311 28H310C309.448 28 309 27.5523 309 27V24.5C309 23.9477 309.448 23.5 310 23.5Z"
       fill="#1F1F1F"
       id="path5497" />
    <path
       d="M339.133 24.9396C339.772 24.9396 340.394 25.1076 340.941 25.428L341.163 25.5579C341.331 25.6563 341.361 25.8866 341.223 26.0242L339.329 27.913C339.213 28.029 339.024 28.029 338.908 27.913L337.026 26.0363C336.888 25.8994 336.917 25.6702 337.084 25.5711L337.303 25.4406C337.856 25.1121 338.485 24.9396 339.133 24.9396Z"
       fill="#1F1F1F"
       id="path5499" />
    <path
       d="M339.133 21.4698C340.724 21.4698 342.251 21.9976 343.495 22.9749L343.671 23.113C343.811 23.2232 343.824 23.4306 343.697 23.5565L342.567 24.6841C342.462 24.7884 342.297 24.8004 342.178 24.7123L342.04 24.6098C341.2 23.9852 340.186 23.6502 339.133 23.6502C338.073 23.6502 337.053 23.9894 336.21 24.6211L336.072 24.7245C335.953 24.8134 335.787 24.8017 335.682 24.6971L334.552 23.5699C334.426 23.4443 334.438 23.2373 334.578 23.127L334.753 22.9888C336 22.0027 337.534 21.4698 339.133 21.4698Z"
       fill="#1F1F1F"
       id="path5501" />
    <path
       d="M339.133 18C341.657 18 344.072 18.8906 345.983 20.5229L346.146 20.6623C346.278 20.7749 346.285 20.9756 346.163 21.098L345.036 22.2219C344.926 22.3308 344.752 22.3385 344.634 22.2395L344.494 22.1228C342.989 20.8647 341.104 20.1804 339.133 20.1804C337.155 20.1804 335.263 20.8694 333.756 22.1354L333.617 22.2527C333.498 22.3521 333.324 22.3447 333.214 22.2356L332.087 21.1118C331.965 20.9895 331.972 20.7892 332.104 20.6765L332.266 20.5371C334.18 18.8959 336.601 18 339.133 18Z"
       fill="#1F1F1F"
       id="path5503" />
    <path
       d="M375 21C375.552 21 376 21.4477 376 22V24C376 24.5523 375.552 25 375 25V21Z"
       fill="#EBEBF5"
       fill-opacity="0.3"
       id="path5505" />
    <path
       fill-rule="evenodd"
       clip-rule="evenodd"
       d="M354 17H371C372.657 17 374 18.3431 374 20V26C374 27.6569 372.657 29 371 29H354C352.343 29 351 27.6569 351 26V20C351 18.3431 352.343 17 354 17ZM354 18C352.895 18 352 18.8954 352 20V26C352 27.1046 352.895 28 354 28H371C372.105 28 373 27.1046 373 26V20C373 18.8954 372.105 18 371 18H354Z"
       fill="#EBEBF5"
       fill-opacity="0.3"
       id="path5507" />
    <rect
       x="353"
       y="19"
       width="19"
       height="8"
       rx="1"
       fill="#1F1F1F"
       id="rect5509" />
    <path
       d="M37.8672 28.0889C40.5552 28.0889 42.1519 25.9868 42.1519 22.4272C42.1519 21.0869 41.8955 19.959 41.4048 19.0874C40.6943 17.7324 39.4712 17 37.9258 17C35.626 17 34 18.5454 34 20.7134C34 22.7495 35.4648 24.229 37.479 24.229C38.7168 24.229 39.7202 23.6504 40.2183 22.647H40.2402C40.2402 22.647 40.2695 22.647 40.2769 22.647C40.2915 22.647 40.3428 22.647 40.3428 22.647C40.3428 25.064 39.4272 26.5068 37.8818 26.5068C36.9736 26.5068 36.2705 26.0088 36.0288 25.2104H34.1465C34.4614 26.9463 35.9336 28.0889 37.8672 28.0889ZM37.9331 22.7275C36.7173 22.7275 35.853 21.8633 35.853 20.6548C35.853 19.4756 36.7612 18.5747 37.9404 18.5747C39.1196 18.5747 40.0278 19.4902 40.0278 20.6841C40.0278 21.8633 39.1416 22.7275 37.9331 22.7275Z"
       fill="#1F1F1F"
       id="path5511" />
    <path
       d="M45.243 27.9863C45.9388 27.9863 46.4148 27.4883 46.4148 26.8291C46.4148 26.1626 45.9388 25.6719 45.243 25.6719C44.5545 25.6719 44.0711 26.1626 44.0711 26.8291C44.0711 27.4883 44.5545 27.9863 45.243 27.9863ZM45.243 22.4932C45.9388 22.4932 46.4148 22.0024 46.4148 21.3433C46.4148 20.6768 45.9388 20.186 45.243 20.186C44.5545 20.186 44.0711 20.6768 44.0711 21.3433C44.0711 22.0024 44.5545 22.4932 45.243 22.4932Z"
       fill="#1F1F1F"
       id="path5513" />
    <path
       d="M53.2706 27.8325H55.0797V25.8623H56.5079V24.2656H55.0797V17.2637H52.4137C50.546 20.0762 49.0592 22.4272 48.107 24.1777V25.8623H53.2706V27.8325ZM49.8575 24.1997C51.088 22.0317 52.1866 20.2959 53.1974 18.8018H53.2999V24.3096H49.8575V24.1997Z"
       fill="#1F1F1F"
       id="path5515" />
    <path
       d="M60.5365 27.8325H62.4262V17.2637H60.5438L57.7826 19.1973V21.0137L60.412 19.168H60.5365V27.8325Z"
       fill="#1F1F1F"
       id="path5517" />
    <path
       d="M221.947 490.172V502.984C221.947 508.292 236.288 512.594 253.979 512.594C271.669 512.594 286.01 508.292 286.01 502.984V490.172"
       fill="#383838"
       id="path5539" />
    <path
       d="M244.369 454.938V483.766C246.42 485.816 249.201 486.968 252.101 486.969H255.856C258.756 486.968 261.537 485.816 263.588 483.766V454.938H244.369Z"
       fill="#212121"
       id="path5541" />
    <path
       d="M248.511 459.079L221.009 431.577C220.291 430.859 219.721 430.007 219.333 429.068C218.944 428.13 218.744 427.125 218.744 426.109C218.744 425.094 218.944 424.088 219.333 423.15C219.721 422.212 220.291 421.36 221.009 420.642L248.511 393.14C249.229 392.422 250.081 391.852 251.019 391.463C251.958 391.075 252.963 390.875 253.979 390.875C254.994 390.875 255.999 391.075 256.938 391.463C257.876 391.852 258.728 392.422 259.446 393.14L286.948 420.642C287.666 421.36 288.236 422.212 288.624 423.15C289.013 424.088 289.213 425.094 289.213 426.109C289.213 427.125 289.013 428.13 288.624 429.068C288.236 430.007 287.666 430.859 286.948 431.577L259.446 459.079C258.728 459.797 257.876 460.367 256.938 460.755C255.999 461.144 254.994 461.344 253.979 461.344C252.963 461.344 251.958 461.144 251.019 460.755C250.081 460.367 249.229 459.797 248.511 459.079Z"
       fill="#383838"
       id="path5543" />
    <path
       d="M259.936 393.14C259.236 392.423 258.4 391.853 257.477 391.464C256.553 391.075 255.562 390.875 254.56 390.875C253.558 390.875 252.566 391.075 251.643 391.464C250.719 391.853 249.883 392.423 249.183 393.14L222.146 420.642C221.509 421.3 220.995 422.067 220.627 422.906C220.995 423.746 221.509 424.512 222.146 425.171L249.174 452.673C249.874 453.39 250.71 453.959 251.633 454.348C252.556 454.737 253.548 454.937 254.55 454.937C255.552 454.937 256.544 454.737 257.467 454.348C258.39 453.959 259.227 453.39 259.927 452.673L286.971 425.171C287.609 424.512 288.125 423.745 288.495 422.906C288.126 422.067 287.611 421.301 286.974 420.642L259.936 393.14Z"
       fill="#4C4C4C"
       id="path5545" />
    <path
       d="M122.65 490.172V502.984C122.65 508.292 141.293 512.594 164.291 512.594C187.289 512.594 205.932 508.292 205.932 502.984V490.172"
       fill="#383838"
       id="path5547" />
    <path
       d="M154.682 480.819C136.318 481.821 122.65 485.623 122.65 490.172C122.65 495.479 141.293 499.781 164.291 499.781C187.289 499.781 205.932 495.479 205.932 490.172C205.932 485.626 192.264 481.821 173.9 480.819"
       fill="#5B5B5B"
       id="path5549" />
    <path
       d="M154.682 457.375V483.766C156.733 485.816 159.514 486.968 162.414 486.969H166.168C169.068 486.968 171.849 485.816 173.9 483.766V457.375H154.682Z"
       fill="#212121"
       id="path5551" />
    <path
       d="M199.525 336.422C201.544 343.489 205.011 350.058 209.705 355.714C214.398 361.369 220.217 365.987 226.79 369.273L231.557 371.656L229.074 385.318C225.936 402.576 218.291 418.697 206.914 432.049C195.537 445.4 180.833 455.507 164.291 461.344C147.754 455.511 133.053 445.41 121.677 432.065C110.301 418.72 102.655 402.605 99.5142 385.353L97.0254 371.656L101.792 369.273C108.365 365.987 114.184 361.369 118.878 355.714C123.571 350.058 127.038 343.489 129.057 336.422"
       fill="#383838"
       id="path5553" />
    <path
       d="M199.525 336.422H129.056C126.194 346.362 120.484 355.247 112.631 361.98C117.001 381.691 126.326 399.962 139.726 415.065C153.126 430.168 170.157 441.602 189.208 448.288C210.157 433.259 224.45 410.682 229.074 385.318L231.556 371.656L226.79 369.273C220.217 365.987 214.398 361.369 209.704 355.714C205.011 350.058 201.544 343.489 199.525 336.422Z"
       fill="#4C4C4C"
       id="path5555" />
    <path
       d="M164.291 352.438C183.75 352.438 199.525 345.267 199.525 336.422C199.525 327.577 183.75 320.406 164.291 320.406C144.832 320.406 129.057 327.577 129.057 336.422C129.057 345.267 144.832 352.438 164.291 352.438Z"
       fill="#5B5B5B"
       id="path5557" />
    <path
       d="M244.452 480.995C231.416 482.212 221.947 485.86 221.947 490.172C221.947 495.479 236.288 499.781 253.979 499.781C271.669 499.781 286.01 495.479 286.01 490.172C286.01 485.87 276.583 482.228 263.588 481.001"
       fill="#5B5B5B"
       id="path5559" />
    <path
       d="M241.166 410.093H247.572V426.109H241.166V410.093ZM260.385 410.093H266.791V425.571H260.385V410.093ZM217.396 363.254C215.585 361.788 213.872 360.203 212.271 358.51L211.761 360.019C208.839 368.618 203.845 376.366 197.219 382.579L188.35 389.305C184.078 391.936 179.468 393.973 174.647 395.359L164.291 397.23L154.23 395.433C149.402 394.083 144.78 392.086 140.489 389.494L131.603 382.768C124.867 376.529 119.786 368.714 116.818 360.025L116.305 358.494C114.703 360.188 112.991 361.774 111.18 363.241C114.581 372.574 120.176 380.953 127.494 387.671L136.879 394.763C141.835 397.799 147.196 400.12 152.802 401.656L163.724 403.623C164.099 403.691 164.483 403.691 164.858 403.623L176.069 401.589C181.666 400.015 187.013 397.658 191.95 394.587L201.319 387.47C208.525 380.789 214.036 372.488 217.396 363.254Z"
       fill="#C1CFE8"
       id="path5561" />
    <path
       d="M164.291 422.906C171.367 422.906 177.104 415.736 177.104 406.891C177.104 398.045 171.367 390.875 164.291 390.875C157.215 390.875 151.479 398.045 151.479 406.891C151.479 415.736 157.215 422.906 164.291 422.906Z"
       fill="#E73844"
       id="path5563" />
    <path
       d="M164.291 390.875C162.023 390.912 159.823 391.66 158.003 393.015C155.807 396.138 154.646 399.87 154.681 403.688C154.681 412.531 160.418 419.703 167.494 419.703C169.762 419.666 171.962 418.918 173.782 417.563C175.977 414.441 177.139 410.708 177.103 406.891C177.103 398.047 171.367 390.875 164.291 390.875Z"
       fill="#FF4D55"
       id="path5565" />
    <path
       d="M196.374 397.23C199.912 397.23 202.78 394.362 202.78 390.824C202.78 387.286 199.912 384.418 196.374 384.418C192.835 384.418 189.967 387.286 189.967 390.824C189.967 394.362 192.835 397.23 196.374 397.23Z"
       fill="#FF4D55"
       id="path5567" />
    <path
       d="M132.311 397.23C135.849 397.23 138.717 394.362 138.717 390.824C138.717 387.286 135.849 384.418 132.311 384.418C128.773 384.418 125.905 387.286 125.905 390.824C125.905 394.362 128.773 397.23 132.311 397.23Z"
       fill="#FF4D55"
       id="path5569" />
    <path
       d="M164.23 464.582C160.959 463.411 157.752 462.071 154.621 460.565V483.81C156.672 485.861 159.453 487.013 162.353 487.014H166.107C169.007 487.013 171.788 485.861 173.839 483.81V460.562C170.709 462.072 167.502 463.416 164.23 464.589V464.582ZM253.978 464.547C252.963 464.547 251.957 464.347 251.019 463.958C250.081 463.57 249.229 463 248.511 462.282L244.369 458.141V483.766C246.42 485.816 249.201 486.968 252.101 486.969H255.855C258.756 486.968 261.537 485.816 263.588 483.766V458.141L259.446 462.282C258.728 463 257.876 463.57 256.937 463.958C255.999 464.347 254.994 464.547 253.978 464.547Z"
       fill="#383838"
       id="path5571" />
    <path
       d="M244.369 442.125C247.907 442.125 250.775 437.823 250.775 432.516C250.775 427.209 247.907 422.906 244.369 422.906C240.831 422.906 237.963 427.209 237.963 432.516C237.963 437.823 240.831 442.125 244.369 442.125Z"
       fill="#E73844"
       id="path5573" />
    <path
       d="M244.369 422.906C243.756 422.922 243.153 423.065 242.598 423.326C241.639 425.174 241.147 427.23 241.166 429.312C241.166 434.62 244.049 438.922 247.572 438.922C248.185 438.906 248.789 438.763 249.344 438.502C250.303 436.654 250.794 434.598 250.775 432.516C250.775 427.208 247.909 422.906 244.369 422.906Z"
       fill="#FF4D55"
       id="path5575" />
    <path
       d="M263.588 442.125C267.126 442.125 269.994 437.823 269.994 432.516C269.994 427.209 267.126 422.906 263.588 422.906C260.05 422.906 257.182 427.209 257.182 432.516C257.182 437.823 260.05 442.125 263.588 442.125Z"
       fill="#E73844"
       id="path5577" />
    <path
       d="M263.588 422.906C262.975 422.922 262.372 423.065 261.817 423.326C260.857 425.174 260.366 427.23 260.385 429.312C260.385 434.62 263.268 438.922 266.791 438.922C267.404 438.906 268.007 438.763 268.562 438.502C269.522 436.654 270.013 434.598 269.994 432.516C269.994 427.208 267.127 422.906 263.588 422.906Z"
       fill="#FF4D55"
       id="path5579" />
    <path
       d="M110.639 460.783H102.711V452.856C102.711 448.477 99.1616 444.928 94.7834 444.928C90.4051 444.928 86.8556 448.477 86.8556 452.856V460.783H78.9278C74.5495 460.783 71 464.333 71 468.711C71 473.089 74.5495 476.639 78.9278 476.639H86.8556V484.567C86.8556 488.945 90.4051 492.495 94.7834 492.495C99.1616 492.495 102.711 488.945 102.711 484.567V476.639H110.639C115.017 476.639 118.567 473.089 118.567 468.711C118.567 464.333 115.017 460.783 110.639 460.783Z"
       fill="#FFE922"
       id="path5581" />
    <path
       d="M311.635 378.703H303.707V370.775C303.707 366.397 300.158 362.848 295.779 362.848C291.401 362.848 287.852 366.397 287.852 370.775V378.703H279.924C275.546 378.703 271.996 382.253 271.996 386.631C271.996 391.009 275.546 394.559 279.924 394.559H287.852V402.487C287.852 406.865 291.401 410.414 295.779 410.414C300.158 410.414 303.707 406.865 303.707 402.487V394.559H311.635C316.013 394.559 319.563 391.009 319.563 386.631C319.563 382.253 316.013 378.703 311.635 378.703Z"
       fill="#FFD422"
       id="path5583" />
    <path
       d="M283.527 473.996C287.906 473.996 291.455 470.447 291.455 466.068C291.455 461.69 287.906 458.141 283.527 458.141C279.149 458.141 275.6 461.69 275.6 466.068C275.6 470.447 279.149 473.996 283.527 473.996Z"
       fill="#FFD422"
       id="path5585" />
    <path
       d="M97.7462 392.717C102.125 392.717 105.674 389.168 105.674 384.789C105.674 380.411 102.125 376.861 97.7462 376.861C93.3678 376.861 89.8184 380.411 89.8184 384.789C89.8184 389.168 93.3678 392.717 97.7462 392.717Z"
       fill="#FFE922"
       id="path5587" />
  </g>
  <defs
     id="defs5617">
    <filter
       id="filter0_f_12050_9681"
       x="-14.9"
       y="171.1"
       width="413.8"
       height="478.8"
       filterUnits="userSpaceOnUse"
       color-interpolation-filters="sRGB">
      <feFlood
         flood-opacity="0"
         result="BackgroundImageFix"
         id="feFlood5593" />
      <feBlend
         mode="normal"
         in="SourceGraphic"
         in2="BackgroundImageFix"
         result="shape"
         id="feBlend5595" />
      <feGaussianBlur
         stdDeviation="35.95"
         result="effect1_foregroundBlur_12050_9681"
         id="feGaussianBlur5597" />
    </filter>
    <filter
       id="filter1_f_12050_9681"
       x="107.1"
       y="480.1"
       width="111.8"
       height="57.8"
       filterUnits="userSpaceOnUse"
       color-interpolation-filters="sRGB">
      <feFlood
         flood-opacity="0"
         result="BackgroundImageFix"
         id="feFlood5600" />
      <feBlend
         mode="normal"
         in="SourceGraphic"
         in2="BackgroundImageFix"
         result="shape"
         id="feBlend5602" />
      <feGaussianBlur
         stdDeviation="5.95"
         result="effect1_foregroundBlur_12050_9681"
         id="feGaussianBlur5604" />
    </filter>
    <filter
       id="filter2_f_12050_9681"
       x="210.1"
       y="486.1"
       width="87.8"
       height="48.8"
       filterUnits="userSpaceOnUse"
       color-interpolation-filters="sRGB">
      <feFlood
         flood-opacity="0"
         result="BackgroundImageFix"
         id="feFlood5607" />
      <feBlend
         mode="normal"
         in="SourceGraphic"
         in2="BackgroundImageFix"
         result="shape"
         id="feBlend5609" />
      <feGaussianBlur
         stdDeviation="5.95"
         result="effect1_foregroundBlur_12050_9681"
         id="feGaussianBlur5611" />
    </filter>
    <clipPath
       id="clip0_12050_9681">
      <rect
         width="390"
         height="844"
         fill="white"
         transform="matrix(-1 0 0 1 390 0)"
         id="rect5614" />
    </clipPath>
  </defs>
</svg>
