<?xml version="1.0" encoding="UTF-8" standalone="no"?>
<svg
   width="390"
   height="844"
   viewBox="0 0 390 844"
   fill="none"
   version="1.1"
   id="svg2214"
   sodipodi:docname="OnBoard2.svg"
   inkscape:version="1.1.2 (0a00cf5339, 2022-02-04)"
   xmlns:inkscape="http://www.inkscape.org/namespaces/inkscape"
   xmlns:sodipodi="http://sodipodi.sourceforge.net/DTD/sodipodi-0.dtd"
   xmlns="http://www.w3.org/2000/svg"
   xmlns:svg="http://www.w3.org/2000/svg">
  <sodipodi:namedview
     id="namedview2216"
     pagecolor="#ffffff"
     bordercolor="#666666"
     borderopacity="1.0"
     inkscape:pageshadow="2"
     inkscape:pageopacity="0.0"
     inkscape:pagecheckerboard="0"
     showgrid="false"
     inkscape:zoom="0.98341232"
     inkscape:cx="-28.472289"
     inkscape:cy="-70.163856"
     inkscape:window-width="1920"
     inkscape:window-height="1012"
     inkscape:window-x="0"
     inkscape:window-y="0"
     inkscape:window-maximized="1"
     inkscape:current-layer="g2170" />
  <g
     clip-path="url(#clip0_12050_9312)"
     id="g2170">
    <rect
       width="390"
       height="844"
       transform="matrix(-1 0 0 1 390 0)"
       fill="#945BF1"
       id="rect2068" />
    <path
       d="M-79.6815 359.196C-55.5853 388.589 -21.0412 407.506 16.7022 411.979C54.4455 416.451 92.4541 406.131 122.752 383.184C153.051 360.236 173.283 326.446 179.205 288.903C185.126 251.359 176.277 212.982 154.512 181.823C132.748 150.664 99.7612 129.146 62.4736 121.784C25.186 114.422 -13.5037 121.788 -45.4771 142.338C-77.4504 162.887 -100.222 195.021 -109.013 231.998C-117.805 268.974 -111.933 307.919 -92.6293 340.659L-73.7075 329.503C-90.1265 301.655 -95.1212 268.53 -87.6434 237.079C-80.1657 205.627 -60.7968 178.295 -33.6011 160.816C-6.40541 143.338 26.5031 137.072 58.2189 143.334C89.9347 149.596 117.992 167.898 136.505 194.401C155.017 220.904 162.544 253.547 157.507 285.48C152.471 317.414 135.261 346.155 109.49 365.673C83.7195 385.192 51.3904 393.97 19.2869 390.166C-12.8165 386.362 -42.1988 370.271 -62.6944 345.27L-79.6815 359.196Z"
       fill="#AA76FF"
       id="path2070" />
    <path
       d="M-44.1077 330.033C-27.5518 350.228 -3.8174 363.225 22.1151 366.298C48.0476 369.371 74.1623 362.28 94.9795 346.514C115.797 330.747 129.698 307.531 133.767 281.736C137.835 255.941 131.755 229.573 116.801 208.164C101.847 186.756 79.1828 171.971 53.5635 166.913C27.9441 161.855 1.36139 166.916 -20.6067 181.035C-42.5748 195.153 -58.2206 217.232 -64.2609 242.638C-70.3013 268.044 -66.2667 294.801 -53.0038 317.297L-46.8482 313.667C-59.1727 292.764 -62.9219 267.899 -57.3089 244.291C-51.6959 220.683 -37.1571 200.166 -16.7432 187.046C3.67061 173.926 28.3726 169.223 52.1794 173.923C75.9861 178.624 97.047 192.362 110.943 212.256C124.838 232.15 130.489 256.653 126.708 280.623C122.927 304.593 110.009 326.167 90.6652 340.818C71.3208 355.469 47.0537 362.058 22.956 359.202C-1.14177 356.347 -23.1969 344.269 -38.5815 325.502L-44.1077 330.033Z"
       fill="#AA76FF"
       id="path2072" />
    <path
       d="M494.597 625.597C468.661 651.534 435.249 668.692 399.059 674.661C362.868 680.63 325.716 675.109 292.824 658.875C259.933 642.64 232.954 616.508 215.68 584.151C198.406 551.793 191.705 514.836 196.517 478.474C201.33 442.111 217.415 408.17 242.512 381.42C267.608 354.67 300.456 336.456 336.438 329.337C372.421 322.218 409.729 326.552 443.122 341.73C476.514 356.908 504.311 382.167 522.607 413.958L512.491 419.78C495.412 390.104 469.463 366.524 438.292 352.356C407.12 338.187 372.293 334.141 338.704 340.787C305.114 347.432 274.451 364.435 251.023 389.406C227.596 414.377 212.581 446.061 208.088 480.005C203.595 513.949 209.851 548.448 225.977 578.654C242.102 608.86 267.286 633.254 297.99 648.408C328.694 663.563 363.375 668.716 397.159 663.145C430.943 657.573 462.132 641.556 486.344 617.344L494.597 625.597Z"
       fill="#AA76FF"
       id="path2074" />
    <path
       d="M456.267 588.267C438.237 606.297 415.011 618.225 389.853 622.374C364.694 626.523 338.868 622.685 316.003 611.4C293.139 600.115 274.384 581.949 262.376 559.455C250.368 536.962 245.709 511.271 249.055 485.993C252.4 460.715 263.582 437.121 281.028 418.526C298.474 399.93 321.308 387.269 346.322 382.32C371.335 377.371 397.271 380.384 420.483 390.935C443.696 401.486 463.02 419.045 475.739 441.145L436.376 463.799C428.392 449.926 416.262 438.903 401.69 432.28C387.119 425.657 370.838 423.765 355.136 426.872C339.434 429.978 325.1 437.927 314.149 449.6C303.197 461.273 296.178 476.084 294.078 491.952C291.978 507.82 294.902 523.947 302.44 538.067C309.978 552.187 321.751 563.591 336.104 570.675C350.457 577.759 366.669 580.168 382.462 577.564C398.255 574.959 412.835 567.471 424.153 556.153L456.267 588.267Z"
       fill="#AA76FF"
       id="path2076" />
    <g
       filter="url(#filter0_f_12050_9312)"
       id="g2080">
      <ellipse
         cx="124.5"
         cy="154.5"
         rx="124.5"
         ry="154.5"
         transform="matrix(-1 0 0 1 313 228)"
         fill="#5955FF"
         fill-opacity="0.3"
         id="ellipse2078" />
    </g>
    <g
       filter="url(#filter1_f_12050_9312)"
       id="g2084">
      <ellipse
         cx="115"
         cy="524"
         rx="17"
         ry="7"
         fill="#752CEC"
         id="ellipse2082" />
    </g>
    <g
       filter="url(#filter2_f_12050_9312)"
       id="g2088">
      <ellipse
         cx="181"
         cy="455"
         rx="23"
         ry="10"
         fill="#752CEC"
         id="ellipse2086" />
    </g>
    <g
       filter="url(#filter3_f_12050_9312)"
       id="g2092">
      <ellipse
         cx="263"
         cy="490"
         rx="23"
         ry="10"
         fill="#752CEC"
         id="ellipse2090" />
    </g>
    <path
       fill-rule="evenodd"
       clip-rule="evenodd"
       d="M319 20H320C320.552 20 321 20.4477 321 21V27C321 27.5523 320.552 28 320 28H319C318.448 28 318 27.5523 318 27V21C318 20.4477 318.448 20 319 20Z"
       fill="#B8B8B8"
       id="path2094" />
    <path
       fill-rule="evenodd"
       clip-rule="evenodd"
       d="M314.5 22H315.5C316.052 22 316.5 22.4477 316.5 23V27C316.5 27.5523 316.052 28 315.5 28H314.5C313.948 28 313.5 27.5523 313.5 27V23C313.5 22.4477 313.948 22 314.5 22Z"
       fill="#B8B8B8"
       id="path2096" />
    <path
       fill-rule="evenodd"
       clip-rule="evenodd"
       d="M310 23.5H311C311.552 23.5 312 23.9477 312 24.5V27C312 27.5523 311.552 28 311 28H310C309.448 28 309 27.5523 309 27V24.5C309 23.9477 309.448 23.5 310 23.5Z"
       fill="#B8B8B8"
       id="path2098" />
    <path
       fill-rule="evenodd"
       clip-rule="evenodd"
       d="M323.5 18H324.5C325.052 18 325.5 18.4477 325.5 19V27C325.5 27.5523 325.052 28 324.5 28H323.5C322.948 28 322.5 27.5523 322.5 27V19C322.5 18.4477 322.948 18 323.5 18Z"
       fill="#EBEBF5"
       fill-opacity="0.3"
       id="path2100" />
    <path
       fill-rule="evenodd"
       clip-rule="evenodd"
       d="M319 20H320C320.552 20 321 20.4477 321 21V27C321 27.5523 320.552 28 320 28H319C318.448 28 318 27.5523 318 27V21C318 20.4477 318.448 20 319 20Z"
       fill="#1F1F1F"
       id="path2102" />
    <path
       fill-rule="evenodd"
       clip-rule="evenodd"
       d="M314.5 22H315.5C316.052 22 316.5 22.4477 316.5 23V27C316.5 27.5523 316.052 28 315.5 28H314.5C313.948 28 313.5 27.5523 313.5 27V23C313.5 22.4477 313.948 22 314.5 22Z"
       fill="#1F1F1F"
       id="path2104" />
    <path
       fill-rule="evenodd"
       clip-rule="evenodd"
       d="M310 23.5H311C311.552 23.5 312 23.9477 312 24.5V27C312 27.5523 311.552 28 311 28H310C309.448 28 309 27.5523 309 27V24.5C309 23.9477 309.448 23.5 310 23.5Z"
       fill="#1F1F1F"
       id="path2106" />
    <path
       d="M339.133 24.9396C339.772 24.9396 340.394 25.1076 340.941 25.428L341.163 25.5579C341.331 25.6563 341.361 25.8866 341.223 26.0242L339.329 27.913C339.212 28.029 339.024 28.029 338.907 27.913L337.026 26.0363C336.888 25.8994 336.917 25.6702 337.084 25.5711L337.303 25.4406C337.855 25.1121 338.485 24.9396 339.133 24.9396Z"
       fill="#1F1F1F"
       id="path2108" />
    <path
       d="M339.133 21.4698C340.724 21.4698 342.251 21.9976 343.495 22.9749L343.671 23.113C343.811 23.2232 343.824 23.4306 343.697 23.5565L342.567 24.6841C342.462 24.7884 342.297 24.8004 342.178 24.7123L342.04 24.6098C341.2 23.9852 340.186 23.6502 339.133 23.6502C338.073 23.6502 337.053 23.9894 336.21 24.6211L336.072 24.7245C335.953 24.8134 335.787 24.8017 335.682 24.6971L334.552 23.5699C334.426 23.4443 334.438 23.2373 334.578 23.127L334.753 22.9888C336 22.0027 337.534 21.4698 339.133 21.4698Z"
       fill="#1F1F1F"
       id="path2110" />
    <path
       d="M339.133 18C341.657 18 344.072 18.8906 345.983 20.5229L346.146 20.6623C346.278 20.7749 346.285 20.9756 346.163 21.098L345.036 22.2219C344.926 22.3308 344.752 22.3385 344.634 22.2395L344.494 22.1228C342.989 20.8647 341.104 20.1804 339.133 20.1804C337.155 20.1804 335.263 20.8694 333.756 22.1354L333.617 22.2527C333.498 22.3521 333.324 22.3447 333.214 22.2356L332.087 21.1118C331.965 20.9895 331.972 20.7892 332.104 20.6765L332.266 20.5371C334.18 18.8959 336.601 18 339.133 18Z"
       fill="#1F1F1F"
       id="path2112" />
    <path
       d="M375 21C375.552 21 376 21.4477 376 22V24C376 24.5523 375.552 25 375 25V21Z"
       fill="#EBEBF5"
       fill-opacity="0.3"
       id="path2114" />
    <path
       fill-rule="evenodd"
       clip-rule="evenodd"
       d="M354 17H371C372.657 17 374 18.3431 374 20V26C374 27.6569 372.657 29 371 29H354C352.343 29 351 27.6569 351 26V20C351 18.3431 352.343 17 354 17ZM354 18C352.895 18 352 18.8954 352 20V26C352 27.1046 352.895 28 354 28H371C372.105 28 373 27.1046 373 26V20C373 18.8954 372.105 18 371 18H354Z"
       fill="#EBEBF5"
       fill-opacity="0.3"
       id="path2116" />
    <rect
       x="353"
       y="19"
       width="19"
       height="8"
       rx="1"
       fill="#1F1F1F"
       id="rect2118" />
    <path
       d="M37.8672 28.0889C40.5552 28.0889 42.1519 25.9868 42.1519 22.4272C42.1519 21.0869 41.8955 19.959 41.4048 19.0874C40.6943 17.7324 39.4712 17 37.9258 17C35.626 17 34 18.5454 34 20.7134C34 22.7495 35.4648 24.229 37.479 24.229C38.7168 24.229 39.7202 23.6504 40.2183 22.647H40.2402C40.2402 22.647 40.2695 22.647 40.2769 22.647C40.2915 22.647 40.3428 22.647 40.3428 22.647C40.3428 25.064 39.4272 26.5068 37.8818 26.5068C36.9736 26.5068 36.2705 26.0088 36.0288 25.2104H34.1465C34.4614 26.9463 35.9336 28.0889 37.8672 28.0889ZM37.9331 22.7275C36.7173 22.7275 35.853 21.8633 35.853 20.6548C35.853 19.4756 36.7612 18.5747 37.9404 18.5747C39.1196 18.5747 40.0278 19.4902 40.0278 20.6841C40.0278 21.8633 39.1416 22.7275 37.9331 22.7275Z"
       fill="#1F1F1F"
       id="path2120" />
    <path
       d="M45.243 27.9863C45.9388 27.9863 46.4148 27.4883 46.4148 26.8291C46.4148 26.1626 45.9388 25.6719 45.243 25.6719C44.5545 25.6719 44.0711 26.1626 44.0711 26.8291C44.0711 27.4883 44.5545 27.9863 45.243 27.9863ZM45.243 22.4932C45.9388 22.4932 46.4148 22.0024 46.4148 21.3433C46.4148 20.6768 45.9388 20.186 45.243 20.186C44.5545 20.186 44.0711 20.6768 44.0711 21.3433C44.0711 22.0024 44.5545 22.4932 45.243 22.4932Z"
       fill="#1F1F1F"
       id="path2122" />
    <path
       d="M53.2706 27.8325H55.0797V25.8623H56.5079V24.2656H55.0797V17.2637H52.4137C50.546 20.0762 49.0592 22.4272 48.107 24.1777V25.8623H53.2706V27.8325ZM49.8575 24.1997C51.088 22.0317 52.1866 20.2959 53.1974 18.8018H53.2999V24.3096H49.8575V24.1997Z"
       fill="#1F1F1F"
       id="path2124" />
    <path
       d="M60.5365 27.8325H62.4262V17.2637H60.5438L57.7826 19.1973V21.0137L60.412 19.168H60.5365V27.8325Z"
       fill="#1F1F1F"
       id="path2126" />
    <path
       d="M-189 778C-189 853.663 -127.663 915 -52 915C23.663 915 85 853.663 85 778C85 702.337 23.663 641 -52 641C-127.663 641 -189 702.337 -189 778ZM75.0117 778C75.0117 848.147 18.1466 905.012 -52 905.012C-122.147 905.012 -179.012 848.147 -179.012 778C-179.012 707.853 -122.147 650.988 -52 650.988C18.1466 650.988 75.0117 707.853 75.0117 778Z"
       fill="#AA76FF"
       id="path2140" />
    <path
       d="M-160 778.5C-160 838.423 -111.647 887 -52 887C7.64675 887 56 838.423 56 778.5C56 718.577 7.64675 670 -52 670C-111.647 670 -160 718.577 -160 778.5ZM31.0654 778.5C31.0654 824.588 -6.12426 861.95 -52 861.95C-97.8757 861.95 -135.065 824.588 -135.065 778.5C-135.065 732.412 -97.8757 695.05 -52 695.05C-6.12426 695.05 31.0654 732.412 31.0654 778.5Z"
       fill="#AA76FF"
       id="path2142" />
    <g
       clip-path="url(#clip1_12050_9312)"
       id="g2152">
      <path
         d="M179.596 395.972C189.797 394.171 196.605 384.441 194.803 374.24L193.42 366.406C190.199 348.175 175.839 333.896 157.685 330.873C144.029 328.598 133.502 317.351 132.086 303.521C130.535 288.377 140.518 274.226 155.307 270.603C170.949 266.762 187.068 275.701 192.005 290.932C192.45 292.306 192.799 293.71 193.05 295.132C194.852 305.333 204.582 312.142 214.782 310.34C224.983 308.538 231.791 298.808 229.989 288.607C229.437 285.481 228.663 282.371 227.689 279.365C216.724 245.538 181.009 225.68 146.383 234.168C113.51 242.22 91.3212 273.679 94.7692 307.343C97.9035 337.94 121.241 362.831 151.523 367.874C154.027 368.291 156.019 370.324 156.48 372.931L157.864 380.765C159.666 390.966 169.396 397.774 179.596 395.972ZM189.304 450.929C199.504 449.127 206.313 439.398 204.511 429.197L204.484 429.044C202.682 418.843 192.952 412.035 182.752 413.837C172.551 415.638 165.743 425.368 167.544 435.569L167.571 435.722C169.373 445.923 179.103 452.731 189.304 450.929Z"
         fill="#EC76FF"
         id="path2148" />
      <path
         d="M211.362 282.251C212.342 285.274 213.11 288.362 213.661 291.492C214.945 298.761 211.859 305.794 206.283 309.881C209.043 310.687 211.952 310.844 214.783 310.339C224.977 308.539 231.793 298.811 229.99 288.608C229.438 285.48 228.661 282.373 227.683 279.369C216.721 245.534 181.002 225.682 146.379 234.167C145.139 234.471 143.914 234.811 142.706 235.186C173.011 233.601 201.729 252.54 211.362 282.251ZM141.357 333.755C159.51 336.779 173.876 351.061 177.096 369.291L178.48 377.123C179.764 384.393 176.668 391.428 171.093 395.514C173.853 396.321 176.762 396.478 179.593 395.973C189.796 394.171 196.602 384.444 194.8 374.241L193.416 366.408C190.196 348.179 175.839 333.895 157.677 330.872C144.022 328.594 133.503 317.352 132.087 303.522C130.75 290.516 137.925 278.241 149.351 272.751C145.877 272.404 142.369 272.654 138.979 273.489C124.187 277.11 114.205 291.259 115.758 306.406C117.174 320.236 127.702 331.477 141.357 333.755ZM180.8 450.47C183.56 451.277 186.47 451.434 189.3 450.929C199.504 449.127 206.31 439.401 204.507 429.197L204.48 429.04C202.679 418.846 192.951 412.031 182.748 413.833C179.814 414.352 177.167 415.523 174.919 417.176C181.559 419.114 186.877 424.663 188.16 431.923L188.187 432.08C189.471 439.349 186.376 446.384 180.8 450.47Z"
         fill="#B83EC3"
         id="path2150" />
    </g>
    <g
       clip-path="url(#clip2_12050_9312)"
       id="g2158">
      <path
         d="M272.543 460.534C267.114 459.575 263.517 454.243 264.509 448.625L265.271 444.31C267.045 434.268 274.742 426.365 284.425 424.644C291.708 423.35 297.353 417.127 298.151 409.513C299.026 401.175 293.752 393.42 285.883 391.474C277.561 389.41 268.944 394.38 266.265 402.776C266.023 403.534 265.833 404.307 265.695 405.091C264.702 410.709 259.496 414.487 254.067 413.527C248.638 412.568 245.041 407.236 246.033 401.618C246.337 399.895 246.76 398.182 247.288 396.525C253.238 377.877 272.331 366.837 290.754 371.397C308.243 375.724 319.967 392.963 318.022 411.497C316.255 428.343 303.741 442.113 287.591 444.985C286.255 445.222 285.187 446.346 284.933 447.783L284.171 452.098C283.178 457.716 277.972 461.493 272.543 460.534ZM267.196 490.805C261.767 489.846 258.17 484.514 259.162 478.895L259.177 478.811C260.17 473.192 265.376 469.415 270.805 470.374C276.234 471.333 279.831 476.665 278.839 482.284L278.824 482.368C277.831 487.987 272.626 491.764 267.196 490.805Z"
         fill="#B83EC3"
         id="path2154" />
      <path
         d="M255.978 398.061C255.446 399.728 255.027 401.429 254.724 403.153C254.017 407.157 255.639 411.018 258.597 413.249C257.124 413.701 255.573 413.797 254.066 413.528C248.64 412.569 245.04 407.238 246.033 401.618C246.337 399.896 246.761 398.184 247.291 396.527C253.24 377.875 272.335 366.838 290.756 371.397C291.416 371.561 292.067 371.744 292.71 371.947C276.567 371.17 261.206 381.682 255.978 398.061ZM293.116 426.179C283.434 427.9 275.733 435.805 273.96 445.846L273.198 450.16C272.49 454.164 274.117 458.025 277.075 460.256C275.602 460.708 274.051 460.804 272.545 460.535C267.114 459.576 263.518 454.246 264.511 448.626L265.273 444.311C267.047 434.27 274.742 426.365 284.429 424.644C291.712 423.347 297.352 417.128 298.151 409.514C298.904 402.353 295.121 395.622 289.05 392.637C290.902 392.435 292.77 392.562 294.574 393.01C302.444 394.956 307.718 402.71 306.842 411.049C306.044 418.664 300.398 424.882 293.116 426.179ZM271.729 490.526C270.255 490.978 268.705 491.074 267.198 490.805C261.767 489.846 258.171 484.516 259.164 478.896L259.179 478.809C260.171 473.194 265.376 469.413 270.807 470.373C272.369 470.649 273.775 471.285 274.968 472.187C271.424 473.275 268.572 476.345 267.866 480.344L267.851 480.43C267.143 484.434 268.77 488.295 271.729 490.526Z"
         fill="#EC76FF"
         id="path2156" />
    </g>
    <g
       clip-path="url(#clip3_12050_9312)"
       id="g2164">
      <path
         d="M114.949 503.467C118.242 502.885 120.44 499.744 119.858 496.451L119.412 493.921C118.372 488.035 113.735 483.425 107.874 482.449C103.465 481.715 100.067 478.083 99.6094 473.618C99.1087 468.729 102.332 464.16 107.107 462.99C112.157 461.75 117.361 464.636 118.955 469.554C119.099 469.997 119.211 470.451 119.292 470.91C119.874 474.203 123.015 476.401 126.309 475.82C129.602 475.238 131.8 472.097 131.219 468.803C131.04 467.794 130.79 466.79 130.476 465.819C126.936 454.898 115.405 448.487 104.225 451.227C93.6121 453.827 86.4481 463.983 87.5613 474.852C88.5732 484.731 96.108 492.767 105.885 494.395C106.693 494.53 107.337 495.186 107.485 496.028L107.932 498.557C108.514 501.851 111.655 504.049 114.949 503.467ZM118.083 521.21C121.376 520.629 123.574 517.487 122.993 514.194L122.984 514.145C122.402 510.851 119.261 508.653 115.967 509.235C112.674 509.816 110.476 512.958 111.058 516.251L111.066 516.301C111.648 519.594 114.789 521.792 118.083 521.21Z"
         fill="#EC76FF"
         id="path2160" />
      <path
         d="M125.205 466.751C125.521 467.727 125.769 468.724 125.947 469.735C126.361 472.082 125.365 474.352 123.565 475.672C124.456 475.932 125.395 475.983 126.309 475.82C129.6 475.238 131.801 472.098 131.219 468.803C131.041 467.794 130.79 466.791 130.474 465.821C126.935 454.897 115.403 448.487 104.224 451.227C103.824 451.325 103.428 451.435 103.038 451.556C112.823 451.044 122.094 457.159 125.205 466.751ZM102.603 483.38C108.464 484.356 113.102 488.967 114.142 494.853L114.588 497.382C115.003 499.729 114.003 502 112.203 503.319C113.094 503.58 114.034 503.63 114.948 503.467C118.242 502.886 120.439 499.745 119.857 496.451L119.411 493.922C118.371 488.037 113.736 483.425 107.872 482.449C103.463 481.713 100.067 478.084 99.6099 473.619C99.1783 469.419 101.495 465.457 105.184 463.684C104.062 463.572 102.929 463.653 101.835 463.922C97.0593 465.091 93.8365 469.66 94.338 474.55C94.7949 479.015 98.1941 482.644 102.603 483.38ZM115.337 521.063C116.228 521.323 117.168 521.374 118.082 521.211C121.376 520.629 123.573 517.489 122.991 514.194L122.983 514.144C122.401 510.852 119.261 508.652 115.966 509.234C115.019 509.401 114.164 509.779 113.439 510.313C115.582 510.939 117.299 512.73 117.713 515.074L117.722 515.125C118.137 517.472 117.138 519.743 115.337 521.063Z"
         fill="#B83EC3"
         id="path2162" />
    </g>
  </g>
  <defs
     id="defs2212">
    <filter
       id="filter0_f_12050_9312"
       x="7.3"
       y="171.3"
       width="362.4"
       height="422.4"
       filterUnits="userSpaceOnUse"
       color-interpolation-filters="sRGB">
      <feFlood
         flood-opacity="0"
         result="BackgroundImageFix"
         id="feFlood2172" />
      <feBlend
         mode="normal"
         in="SourceGraphic"
         in2="BackgroundImageFix"
         result="shape"
         id="feBlend2174" />
      <feGaussianBlur
         stdDeviation="28.35"
         result="effect1_foregroundBlur_12050_9312"
         id="feGaussianBlur2176" />
    </filter>
    <filter
       id="filter1_f_12050_9312"
       x="86.1"
       y="505.1"
       width="57.8"
       height="37.8"
       filterUnits="userSpaceOnUse"
       color-interpolation-filters="sRGB">
      <feFlood
         flood-opacity="0"
         result="BackgroundImageFix"
         id="feFlood2179" />
      <feBlend
         mode="normal"
         in="SourceGraphic"
         in2="BackgroundImageFix"
         result="shape"
         id="feBlend2181" />
      <feGaussianBlur
         stdDeviation="5.95"
         result="effect1_foregroundBlur_12050_9312"
         id="feGaussianBlur2183" />
    </filter>
    <filter
       id="filter2_f_12050_9312"
       x="146.1"
       y="433.1"
       width="69.8"
       height="43.8"
       filterUnits="userSpaceOnUse"
       color-interpolation-filters="sRGB">
      <feFlood
         flood-opacity="0"
         result="BackgroundImageFix"
         id="feFlood2186" />
      <feBlend
         mode="normal"
         in="SourceGraphic"
         in2="BackgroundImageFix"
         result="shape"
         id="feBlend2188" />
      <feGaussianBlur
         stdDeviation="5.95"
         result="effect1_foregroundBlur_12050_9312"
         id="feGaussianBlur2190" />
    </filter>
    <filter
       id="filter3_f_12050_9312"
       x="228.1"
       y="468.1"
       width="69.8"
       height="43.8"
       filterUnits="userSpaceOnUse"
       color-interpolation-filters="sRGB">
      <feFlood
         flood-opacity="0"
         result="BackgroundImageFix"
         id="feFlood2193" />
      <feBlend
         mode="normal"
         in="SourceGraphic"
         in2="BackgroundImageFix"
         result="shape"
         id="feBlend2195" />
      <feGaussianBlur
         stdDeviation="5.95"
         result="effect1_foregroundBlur_12050_9312"
         id="feGaussianBlur2197" />
    </filter>
    <clipPath
       id="clip0_12050_9312">
      <rect
         width="390"
         height="844"
         fill="white"
         transform="matrix(-1 0 0 1 390 0)"
         id="rect2200" />
    </clipPath>
    <clipPath
       id="clip1_12050_9312">
      <rect
         width="221.072"
         height="221.072"
         fill="white"
         transform="matrix(-0.984755 0.173947 0.173947 0.984755 259.702 214)"
         id="rect2203" />
    </clipPath>
    <clipPath
       id="clip2_12050_9312">
      <rect
         width="117.669"
         height="121.767"
         fill="white"
         transform="translate(233.125 361.511) rotate(10.0174)"
         id="rect2206" />
    </clipPath>
    <clipPath
       id="clip3_12050_9312">
      <rect
         width="71.3753"
         height="71.3753"
         fill="white"
         transform="matrix(-0.984755 0.173947 0.173947 0.984755 140.812 444.716)"
         id="rect2209" />
    </clipPath>
  </defs>
</svg>
