<?xml version="1.0" encoding="UTF-8" standalone="no"?>
<svg
   width="390"
   height="844"
   viewBox="0 0 390 844"
   fill="none"
   version="1.1"
   id="svg533"
   sodipodi:docname="OnBoard1.svg"
   inkscape:version="1.1.2 (0a00cf5339, 2022-02-04)"
   xmlns:inkscape="http://www.inkscape.org/namespaces/inkscape"
   xmlns:sodipodi="http://sodipodi.sourceforge.net/DTD/sodipodi-0.dtd"
   xmlns="http://www.w3.org/2000/svg"
   xmlns:svg="http://www.w3.org/2000/svg">
  <sodipodi:namedview
     id="namedview535"
     pagecolor="#ffffff"
     bordercolor="#666666"
     borderopacity="1.0"
     inkscape:pageshadow="2"
     inkscape:pageopacity="0.0"
     inkscape:pagecheckerboard="0"
     showgrid="false"
     inkscape:zoom="2.687676"
     inkscape:cx="164.82642"
     inkscape:cy="774.27488"
     inkscape:window-width="1920"
     inkscape:window-height="1012"
     inkscape:window-x="0"
     inkscape:window-y="0"
     inkscape:window-maximized="1"
     inkscape:current-layer="g479" />
  <g
     clip-path="url(#clip0_12036_11540)"
     id="g479">
    <rect
       width="390"
       height="844"
       fill="#945BF1"
       id="rect289" />
    <path
       fill-rule="evenodd"
       clip-rule="evenodd"
       d="M319 20H320C320.552 20 321 20.4477 321 21V27C321 27.5523 320.552 28 320 28H319C318.448 28 318 27.5523 318 27V21C318 20.4477 318.448 20 319 20Z"
       fill="#B8B8B8"
       id="path291" />
    <path
       fill-rule="evenodd"
       clip-rule="evenodd"
       d="M314.5 22H315.5C316.052 22 316.5 22.4477 316.5 23V27C316.5 27.5523 316.052 28 315.5 28H314.5C313.948 28 313.5 27.5523 313.5 27V23C313.5 22.4477 313.948 22 314.5 22Z"
       fill="#B8B8B8"
       id="path293" />
    <path
       fill-rule="evenodd"
       clip-rule="evenodd"
       d="M310 23.5H311C311.552 23.5 312 23.9477 312 24.5V27C312 27.5523 311.552 28 311 28H310C309.448 28 309 27.5523 309 27V24.5C309 23.9477 309.448 23.5 310 23.5Z"
       fill="#B8B8B8"
       id="path295" />
    <path
       fill-rule="evenodd"
       clip-rule="evenodd"
       d="M323.5 18H324.5C325.052 18 325.5 18.4477 325.5 19V27C325.5 27.5523 325.052 28 324.5 28H323.5C322.948 28 322.5 27.5523 322.5 27V19C322.5 18.4477 322.948 18 323.5 18Z"
       fill="#EBEBF5"
       fill-opacity="0.3"
       id="path297" />
    <path
       fill-rule="evenodd"
       clip-rule="evenodd"
       d="M319 20H320C320.552 20 321 20.4477 321 21V27C321 27.5523 320.552 28 320 28H319C318.448 28 318 27.5523 318 27V21C318 20.4477 318.448 20 319 20Z"
       fill="#1F1F1F"
       id="path299" />
    <path
       fill-rule="evenodd"
       clip-rule="evenodd"
       d="M314.5 22H315.5C316.052 22 316.5 22.4477 316.5 23V27C316.5 27.5523 316.052 28 315.5 28H314.5C313.948 28 313.5 27.5523 313.5 27V23C313.5 22.4477 313.948 22 314.5 22Z"
       fill="#1F1F1F"
       id="path301" />
    <path
       fill-rule="evenodd"
       clip-rule="evenodd"
       d="M310 23.5H311C311.552 23.5 312 23.9477 312 24.5V27C312 27.5523 311.552 28 311 28H310C309.448 28 309 27.5523 309 27V24.5C309 23.9477 309.448 23.5 310 23.5Z"
       fill="#1F1F1F"
       id="path303" />
    <path
       d="M339.133 24.9396C339.772 24.9396 340.394 25.1076 340.941 25.428L341.163 25.5579C341.331 25.6563 341.361 25.8866 341.223 26.0242L339.329 27.913C339.212 28.029 339.024 28.029 338.907 27.913L337.026 26.0363C336.888 25.8994 336.917 25.6702 337.084 25.5711L337.303 25.4406C337.855 25.1121 338.485 24.9396 339.133 24.9396Z"
       fill="#1F1F1F"
       id="path305" />
    <path
       d="M339.133 21.4698C340.724 21.4698 342.251 21.9976 343.495 22.9749L343.671 23.113C343.811 23.2232 343.824 23.4306 343.697 23.5565L342.567 24.6841C342.462 24.7884 342.297 24.8004 342.178 24.7123L342.04 24.6098C341.2 23.9852 340.186 23.6502 339.133 23.6502C338.073 23.6502 337.053 23.9894 336.21 24.6211L336.072 24.7245C335.953 24.8134 335.787 24.8017 335.682 24.6971L334.552 23.5699C334.426 23.4443 334.438 23.2373 334.578 23.127L334.753 22.9888C336 22.0027 337.534 21.4698 339.133 21.4698Z"
       fill="#1F1F1F"
       id="path307" />
    <path
       d="M339.133 18C341.657 18 344.072 18.8906 345.983 20.5229L346.146 20.6623C346.278 20.7749 346.285 20.9756 346.163 21.098L345.036 22.2219C344.926 22.3308 344.752 22.3385 344.634 22.2395L344.494 22.1228C342.989 20.8647 341.104 20.1804 339.133 20.1804C337.155 20.1804 335.263 20.8694 333.756 22.1354L333.617 22.2527C333.498 22.3521 333.324 22.3447 333.214 22.2356L332.087 21.1118C331.965 20.9895 331.972 20.7892 332.104 20.6765L332.266 20.5371C334.18 18.8959 336.601 18 339.133 18Z"
       fill="#1F1F1F"
       id="path309" />
    <path
       d="M375 21C375.552 21 376 21.4477 376 22V24C376 24.5523 375.552 25 375 25V21Z"
       fill="#EBEBF5"
       fill-opacity="0.3"
       id="path311" />
    <path
       fill-rule="evenodd"
       clip-rule="evenodd"
       d="M354 17H371C372.657 17 374 18.3431 374 20V26C374 27.6569 372.657 29 371 29H354C352.343 29 351 27.6569 351 26V20C351 18.3431 352.343 17 354 17ZM354 18C352.895 18 352 18.8954 352 20V26C352 27.1046 352.895 28 354 28H371C372.105 28 373 27.1046 373 26V20C373 18.8954 372.105 18 371 18H354Z"
       fill="#EBEBF5"
       fill-opacity="0.3"
       id="path313" />
    <rect
       x="353"
       y="19"
       width="19"
       height="8"
       rx="1"
       fill="#1F1F1F"
       id="rect315" />
    <path
       d="M37.8672 28.0889C40.5552 28.0889 42.1519 25.9868 42.1519 22.4272C42.1519 21.0869 41.8955 19.959 41.4048 19.0874C40.6943 17.7324 39.4712 17 37.9258 17C35.626 17 34 18.5454 34 20.7134C34 22.7495 35.4648 24.229 37.479 24.229C38.7168 24.229 39.7202 23.6504 40.2183 22.647H40.2402C40.2402 22.647 40.2695 22.647 40.2769 22.647C40.2915 22.647 40.3428 22.647 40.3428 22.647C40.3428 25.064 39.4272 26.5068 37.8818 26.5068C36.9736 26.5068 36.2705 26.0088 36.0288 25.2104H34.1465C34.4614 26.9463 35.9336 28.0889 37.8672 28.0889ZM37.9331 22.7275C36.7173 22.7275 35.853 21.8633 35.853 20.6548C35.853 19.4756 36.7612 18.5747 37.9404 18.5747C39.1196 18.5747 40.0278 19.4902 40.0278 20.6841C40.0278 21.8633 39.1416 22.7275 37.9331 22.7275Z"
       fill="#1F1F1F"
       id="path317" />
    <path
       d="M45.243 27.9863C45.9388 27.9863 46.4148 27.4883 46.4148 26.8291C46.4148 26.1626 45.9388 25.6719 45.243 25.6719C44.5545 25.6719 44.0711 26.1626 44.0711 26.8291C44.0711 27.4883 44.5545 27.9863 45.243 27.9863ZM45.243 22.4932C45.9388 22.4932 46.4148 22.0024 46.4148 21.3433C46.4148 20.6768 45.9388 20.186 45.243 20.186C44.5545 20.186 44.0711 20.6768 44.0711 21.3433C44.0711 22.0024 44.5545 22.4932 45.243 22.4932Z"
       fill="#1F1F1F"
       id="path319" />
    <path
       d="M53.2706 27.8325H55.0797V25.8623H56.5079V24.2656H55.0797V17.2637H52.4137C50.546 20.0762 49.0592 22.4272 48.107 24.1777V25.8623H53.2706V27.8325ZM49.8575 24.1997C51.088 22.0317 52.1866 20.2959 53.1974 18.8018H53.2999V24.3096H49.8575V24.1997Z"
       fill="#1F1F1F"
       id="path321" />
    <path
       d="M60.5365 27.8325H62.4262V17.2637H60.5438L57.7826 19.1973V21.0137L60.412 19.168H60.5365V27.8325Z"
       fill="#1F1F1F"
       id="path323" />
    <path
       d="M-110.154 519.154C-80.9657 548.341 -43.3662 567.651 -2.63852 574.368C38.0892 581.085 79.8979 574.872 116.913 556.602C153.927 538.333 184.288 508.925 203.727 472.511C223.167 436.098 230.709 394.508 225.293 353.587C219.877 312.666 201.776 274.47 173.533 244.367C145.29 214.264 108.324 193.767 67.8314 185.755C27.3385 177.744 -14.647 182.621 -52.2251 199.702C-89.8032 216.783 -121.085 245.208 -141.675 280.984L-130.291 287.536C-111.07 254.139 -81.8688 227.604 -46.7899 211.66C-11.711 195.715 27.4822 191.162 65.2822 198.641C103.082 206.119 137.589 225.253 163.954 253.354C190.318 281.455 207.216 317.111 212.271 355.31C217.327 393.51 210.287 432.334 192.14 466.326C173.993 500.318 145.652 527.77 111.099 544.824C76.5461 561.879 37.5179 567.678 -0.501114 561.408C-38.5202 555.137 -73.6191 537.113 -100.866 509.866L-110.154 519.154Z"
       fill="#AA76FF"
       id="path339" />
    <path
       d="M-67.5807 477.581C-47.1862 497.975 -20.9141 511.467 7.54372 516.161C36.0016 520.854 65.2147 516.513 91.0782 503.748C116.942 490.982 138.155 470.434 151.739 444.99C165.322 419.547 170.591 390.487 166.807 361.894C163.023 333.301 150.375 306.612 130.64 285.578C110.906 264.544 85.0773 250.222 56.7835 244.624C28.4897 239.026 -0.847 242.434 -27.1041 254.369C-53.3612 266.304 -75.2189 286.166 -89.6059 311.164L-46.1213 336.19C-36.965 320.281 -23.054 307.64 -6.34303 300.044C10.3679 292.448 29.0388 290.279 47.0459 293.842C65.0531 297.405 81.4915 306.52 94.0511 319.907C106.611 333.293 114.66 350.279 117.069 368.477C119.477 386.674 116.123 405.169 107.479 421.362C98.8339 437.555 85.3327 450.633 68.8723 458.757C52.4119 466.882 33.8196 469.644 15.708 466.657C-2.4035 463.67 -19.124 455.084 -32.1038 442.104L-67.5807 477.581Z"
       fill="#AA76FF"
       id="path341" />
    <path
       d="M474 776.5C474 851.887 412.887 913 337.5 913C262.113 913 201 851.887 201 776.5C201 701.113 262.113 640 337.5 640C412.887 640 474 701.113 474 776.5ZM210.952 776.5C210.952 846.391 267.609 903.048 337.5 903.048C407.391 903.048 464.048 846.391 464.048 776.5C464.048 706.609 407.391 649.952 337.5 649.952C267.609 649.952 210.952 706.609 210.952 776.5Z"
       fill="#AA76FF"
       id="path343" />
    <path
       d="M446 777C446 836.647 397.647 885 338 885C278.353 885 230 836.647 230 777C230 717.353 278.353 669 338 669C397.647 669 446 717.353 446 777ZM254.935 777C254.935 822.876 292.124 860.065 338 860.065C383.876 860.065 421.065 822.876 421.065 777C421.065 731.124 383.876 693.935 338 693.935C292.124 693.935 254.935 731.124 254.935 777Z"
       fill="#AA76FF"
       id="path345" />
    <path
       d="M537.681 359.196C513.585 388.589 479.041 407.506 441.298 411.979C403.555 416.451 365.546 406.131 335.248 383.184C304.949 360.236 284.717 326.446 278.795 288.903C272.874 251.359 281.723 212.982 303.488 181.823C325.252 150.664 358.239 129.146 395.526 121.784C432.814 114.422 471.504 121.788 503.477 142.338C535.45 162.887 558.222 195.021 567.013 231.998C575.805 268.974 569.933 307.919 550.629 340.659L531.708 329.503C548.127 301.655 553.121 268.53 545.643 237.079C538.166 205.627 518.797 178.295 491.601 160.816C464.405 143.338 431.497 137.072 399.781 143.334C368.065 149.596 340.008 167.898 321.495 194.401C302.983 220.904 295.456 253.547 300.493 285.48C305.529 317.414 322.739 346.155 348.51 365.673C374.28 385.192 406.61 393.97 438.713 390.166C470.817 386.362 500.199 370.271 520.694 345.27L537.681 359.196Z"
       fill="#AA76FF"
       id="path347" />
    <path
       d="M502.108 330.033C485.552 350.228 461.817 363.225 435.885 366.298C409.952 369.371 383.838 362.28 363.02 346.514C342.203 330.747 328.302 307.531 324.233 281.736C320.165 255.941 326.245 229.573 341.199 208.164C356.153 186.756 378.817 171.971 404.437 166.913C430.056 161.855 456.639 166.916 478.607 181.035C500.575 195.153 516.221 217.232 522.261 242.638C528.301 268.044 524.267 294.801 511.004 317.297L504.848 313.667C517.173 292.764 520.922 267.899 515.309 244.291C509.696 220.683 495.157 200.166 474.743 187.046C454.329 173.926 429.627 169.223 405.821 173.923C382.014 178.624 360.953 192.362 347.057 212.256C333.162 232.15 327.511 256.653 331.292 280.623C335.073 304.593 347.991 326.167 367.335 340.818C386.679 355.469 410.946 362.058 435.044 359.202C459.142 356.347 481.197 344.269 496.581 325.502L502.108 330.033Z"
       fill="#AA76FF"
       id="path349" />
    <g
       filter="url(#filter0_f_12036_11540)"
       id="g353">
      <ellipse
         cx="195"
         cy="453"
         rx="151.5"
         ry="180"
         fill="#E256F9"
         fill-opacity="0.33"
         id="ellipse351" />
    </g>
    <g
       filter="url(#filter1_f_12036_11540)"
       id="g357">
      <ellipse
         cx="306.141"
         cy="578.641"
         rx="33.5"
         ry="7"
         fill="#752CEC"
         id="ellipse355" />
    </g>
    <g
       filter="url(#filter2_f_12036_11540)"
       id="g361">
      <ellipse
         cx="199"
         cy="472.5"
         rx="112"
         ry="9.5"
         fill="#752CEC"
         id="ellipse359" />
    </g>
    <g
       filter="url(#filter3_f_12036_11540)"
       id="g365">
      <ellipse
         cx="101.666"
         cy="542.049"
         rx="37.4285"
         ry="7.82088"
         transform="rotate(-1.88706 101.666 542.049)"
         fill="#752CEC"
         id="ellipse363" />
    </g>
    <g
       clip-path="url(#clip1_12036_11540)"
       id="g395">
      <path
         d="M304.425 522.54C319.352 518.716 330.035 505.555 330.605 490.033L330.633 489.253C330.681 487.939 329.656 486.836 328.343 486.788C327.03 486.74 325.926 487.765 325.878 489.078L325.849 489.859C325.342 503.698 315.524 515.363 301.975 518.227C288.426 521.091 274.728 514.397 268.663 501.947L268.321 501.244C267.746 500.063 266.322 499.572 265.141 500.147C263.959 500.723 263.468 502.147 264.044 503.328L264.386 504.03C271.199 518.018 286.334 525.731 301.559 523.149L302.826 522.06L304.425 522.54Z"
         fill="#FFD422"
         id="path367" />
      <path
         d="M302.826 522.06L304.425 522.54C319.352 518.716 330.035 505.555 330.605 490.033L330.633 489.253C330.681 487.939 329.656 486.836 328.343 486.788C327.03 486.74 325.926 487.765 325.878 489.078L325.849 489.859C325.342 503.698 315.524 515.363 301.975 518.227L302.792 522.09L302.826 522.06Z"
         fill="#FF9F22"
         id="path369" />
      <path
         d="M310.195 534.106C308.91 534.378 307.647 533.556 307.375 532.27L305.779 524.718C305.508 523.434 304.243 522.611 302.959 522.882C301.676 523.154 300.852 524.419 301.124 525.702L302.72 533.254C302.992 534.54 302.17 535.802 300.884 536.074C299.599 536.346 298.336 535.524 298.064 534.238L296.468 526.686C295.654 522.836 298.125 519.041 301.975 518.227C305.826 517.413 309.621 519.883 310.435 523.734L312.031 531.286C312.303 532.572 311.481 533.834 310.195 534.106Z"
         fill="#FFF17D"
         id="path371" />
      <path
         d="M305.779 524.718L307.375 532.27C307.647 533.556 308.91 534.378 310.195 534.106C311.481 533.834 312.303 532.572 312.031 531.286L310.434 523.734C309.621 519.883 305.826 517.413 301.975 518.227L302.959 522.882C304.243 522.611 305.508 523.434 305.779 524.718Z"
         fill="#FFD422"
         id="path373" />
      <path
         d="M286.724 568.789L284.397 569.281L283.905 566.953C283.633 565.667 282.37 564.845 281.085 565.117C279.799 565.389 278.977 566.651 279.249 567.937L279.741 570.265L277.413 570.757C276.128 571.029 275.306 572.291 275.578 573.577C275.849 574.862 277.112 575.684 278.397 575.412L280.725 574.92L281.217 577.248C281.489 578.534 282.751 579.355 284.037 579.084C285.323 578.812 286.144 577.549 285.873 576.264L285.381 573.936L287.708 573.444C288.994 573.172 289.816 571.91 289.544 570.624C289.272 569.339 288.01 568.517 286.724 568.789Z"
         fill="#FFF17D"
         id="path375" />
      <path
         d="M338.805 523.735L336.477 524.227L335.985 521.9C335.714 520.614 334.451 519.792 333.166 520.064C331.88 520.336 331.058 521.598 331.33 522.884L331.822 525.211L329.494 525.703C328.209 525.975 327.387 527.238 327.658 528.523C327.93 529.809 329.193 530.631 330.478 530.359L332.806 529.867L333.298 532.195C333.57 533.48 334.832 534.302 336.118 534.03C337.403 533.759 338.225 532.496 337.954 531.21L337.462 528.883L339.789 528.391C341.075 528.119 341.897 526.856 341.625 525.571C341.353 524.285 340.091 523.463 338.805 523.735Z"
         fill="#FFD422"
         id="path377" />
      <path
         d="M340.353 558.668C341.639 558.397 342.461 557.134 342.189 555.849C341.917 554.563 340.655 553.741 339.369 554.013C338.084 554.285 337.262 555.547 337.534 556.833C337.805 558.118 339.068 558.94 340.353 558.668Z"
         fill="#FFD422"
         id="path379" />
      <path
         d="M277.834 545.135C279.119 544.863 279.941 543.6 279.669 542.315C279.398 541.029 278.135 540.207 276.849 540.479C275.564 540.751 274.742 542.013 275.014 543.299C275.286 544.584 276.548 545.406 277.834 545.135Z"
         fill="#FFF17D"
         id="path381" />
      <path
         d="M316.608 560.611L327.612 560.568C327.747 560.166 327.772 559.735 327.684 559.32L322.435 534.491C322.346 534.068 322.146 533.686 321.864 533.378L311.785 537.792L316.608 560.611Z"
         fill="#7873D5"
         id="path383" />
      <path
         d="M300.922 540.088L289.919 540.131C289.784 540.533 289.759 540.964 289.847 541.379L295.095 566.209C295.185 566.631 295.385 567.013 295.666 567.321L305.746 562.907L300.922 540.088Z"
         fill="#B473F1"
         id="path385" />
      <path
         d="M300.026 543.52L309.638 539.141L304.009 527.848C303.619 527.93 303.251 528.11 302.94 528.38L290.614 539.091C290.294 539.37 290.054 539.729 289.919 540.131L300.026 543.52ZM303.538 560.132L295.666 567.321C295.953 567.634 296.317 567.866 296.723 567.99L312.329 572.797C312.716 572.916 313.126 572.935 313.522 572.851L314.1 560.246L303.538 560.132Z"
         fill="#FF7CEC"
         id="path387" />
      <path
         d="M313.993 540.568L321.864 533.378C321.578 533.065 321.213 532.834 320.808 532.709L305.201 527.902C304.815 527.783 304.405 527.764 304.009 527.848L306.846 541.268L313.993 540.568ZM317.504 557.179L310.685 559.431L313.522 572.851C313.911 572.769 314.28 572.589 314.59 572.319L326.917 561.608C327.237 561.33 327.477 560.971 327.612 560.568L317.504 557.179Z"
         fill="#B473F1"
         id="path389" />
      <path
         d="M306.19 538.165L300.026 543.52L303.538 560.132L311.341 562.535L317.504 557.18L313.993 540.568L306.19 538.165Z"
         fill="#FF9EF1"
         id="path391" />
      <path
         d="M306.19 538.165L311.341 562.535L317.504 557.18L313.993 540.568L306.19 538.165Z"
         fill="#FF7CEC"
         id="path393" />
    </g>
    <g
       clip-path="url(#clip2_12036_11540)"
       id="g413">
      <path
         d="M242.807 443.226H147.194L139.226 459.161H250.774L242.807 443.226Z"
         fill="#6F6571"
         id="path397" />
      <path
         d="M155.162 443.226H79.4677C75.0675 443.226 71.5 439.659 71.5 435.258V291.839C71.5 287.438 75.0675 283.871 79.4677 283.871H310.532C314.933 283.871 318.5 287.439 318.5 291.839V435.258C318.5 439.659 314.932 443.226 310.532 443.226H171.096"
         fill="#867E88"
         id="path399" />
      <path
         d="M306.549 427.29H83.4516C82.395 427.29 81.3817 426.871 80.6346 426.124C79.8875 425.376 79.4678 424.363 79.4678 423.307V295.823C79.4678 294.766 79.8875 293.753 80.6346 293.006C81.3817 292.259 82.395 291.839 83.4516 291.839H306.549C307.605 291.839 308.618 292.259 309.366 293.006C310.113 293.753 310.532 294.766 310.532 295.823V423.307C310.532 424.363 310.113 425.376 309.366 426.124C308.618 426.871 307.605 427.29 306.549 427.29Z"
         fill="#A5CDFF"
         id="path401" />
      <path
         d="M87.4343 299.808H302.566V419.323H87.4343V299.808Z"
         fill="#C4DEFF"
         id="path403" />
      <path
         d="M266.71 467.129H123.29C122.767 467.129 122.249 467.026 121.766 466.826C121.282 466.626 120.843 466.333 120.473 465.963C120.103 465.593 119.809 465.153 119.609 464.67C119.409 464.186 119.306 463.668 119.307 463.145C119.306 462.622 119.409 462.104 119.609 461.62C119.809 461.137 120.103 460.697 120.473 460.327C120.843 459.957 121.282 459.664 121.766 459.464C122.249 459.264 122.767 459.161 123.29 459.161H266.71C267.233 459.161 267.751 459.264 268.235 459.464C268.718 459.664 269.157 459.957 269.527 460.327C269.897 460.697 270.191 461.137 270.391 461.62C270.591 462.104 270.694 462.622 270.694 463.145C270.694 463.668 270.591 464.186 270.391 464.67C270.191 465.153 269.897 465.593 269.527 465.963C269.157 466.333 268.718 466.626 268.235 466.826C267.751 467.026 267.233 467.129 266.71 467.129Z"
         fill="#867E88"
         id="path405" />
      <path
         d="M153.169 409.363C152.646 409.364 152.128 409.261 151.644 409.061C151.161 408.861 150.722 408.567 150.352 408.196C149.982 407.826 149.689 407.387 149.488 406.904C149.288 406.421 149.185 405.903 149.185 405.38C149.185 404.856 149.288 404.338 149.488 403.855C149.689 403.372 149.982 402.933 150.352 402.563L241.981 310.934C243.537 309.378 246.059 309.378 247.614 310.934C249.17 312.49 249.171 315.012 247.614 316.567L155.986 408.196C155.617 408.566 155.178 408.86 154.694 409.061C154.211 409.261 153.692 409.364 153.169 409.363Z"
         fill="white"
         id="path407" />
      <path
         d="M157.153 377.492C156.63 377.493 156.112 377.39 155.628 377.19C155.145 376.989 154.706 376.695 154.336 376.325C153.966 375.955 153.673 375.516 153.472 375.033C153.272 374.55 153.169 374.031 153.169 373.508C153.169 372.985 153.272 372.467 153.472 371.984C153.673 371.501 153.966 371.062 154.336 370.692L204.135 320.893C204.504 320.523 204.944 320.23 205.427 320.029C205.91 319.829 206.428 319.726 206.951 319.726C207.474 319.726 207.992 319.829 208.476 320.029C208.959 320.23 209.398 320.523 209.768 320.893C210.138 321.263 210.432 321.702 210.632 322.185C210.832 322.669 210.935 323.187 210.935 323.71C210.935 324.233 210.832 324.751 210.632 325.234C210.432 325.718 210.138 326.157 209.768 326.526L159.97 376.325C159.6 376.695 159.161 376.989 158.678 377.19C158.195 377.39 157.676 377.493 157.153 377.492Z"
         fill="#E2EFFF"
         id="path409" />
      <path
         d="M246.791 451.193L242.807 443.226H147.194L143.21 451.193H246.791Z"
         fill="#5D5360"
         id="path411" />
    </g>
    <g
       clip-path="url(#clip3_12036_11540)"
       id="g445">
      <path
         d="M111.23 467.802L105.993 474.642L75.7733 482.739L70.955 478.594L75.0838 466.816C75.3074 466.179 75.6833 465.605 76.1788 465.146C76.6743 464.686 77.2744 464.355 77.9272 464.18L97.9847 458.805C98.6374 458.63 99.323 458.618 99.9818 458.768C100.641 458.918 101.253 459.227 101.765 459.667L111.23 467.802Z"
         fill="#9B9B9B"
         id="path415" />
      <path
         d="M101.765 459.667C101.253 459.226 100.641 458.918 99.9818 458.768C99.323 458.617 98.6375 458.63 97.9848 458.805L93.3713 460.041C94.024 459.866 94.7096 459.854 95.3684 460.004C96.0272 460.154 96.6394 460.463 97.1519 460.903L106.616 469.038L111.23 467.802L101.765 459.667Z"
         fill="#818181"
         id="path417" />
      <path
         d="M135.418 470.551L146.444 511.701C146.968 513.657 145.808 515.666 143.852 516.19L66.8977 536.81C64.9414 537.334 62.9325 536.175 62.4083 534.218L51.3821 493.068C50.8584 491.113 52.0182 489.104 53.9745 488.58L130.929 467.96C132.885 467.436 134.894 468.596 135.418 470.551Z"
         fill="#595959"
         id="path419" />
      <path
         d="M130.929 467.96L126.887 469.043C128.844 468.519 130.853 469.679 131.376 471.634L142.403 512.784C142.927 514.74 141.767 516.749 139.811 517.273L143.852 516.19C145.808 515.666 146.968 513.657 146.444 511.701L135.418 470.551C134.894 468.596 132.885 467.436 130.929 467.96Z"
         fill="#454545"
         id="path421" />
      <path
         d="M139.245 522.312L73.9474 539.808C72.4487 540.21 70.9083 539.321 70.5067 537.822L70.012 535.976L140.737 517.025L141.232 518.871C141.634 520.37 140.744 521.91 139.245 522.312Z"
         fill="#454545"
         id="path423" />
      <path
         d="M134.059 465.478L136.129 473.205L52.0935 495.722L50.023 487.995C49.4992 486.041 50.6591 484.032 52.6154 483.508L129.57 462.888C131.526 462.364 133.535 463.523 134.059 465.478Z"
         fill="#A3B6C0"
         id="path425" />
      <path
         d="M129.57 462.888L125.528 463.971C127.485 463.447 129.494 464.606 130.017 466.561L132.088 474.288L136.129 473.205L134.059 465.478C133.535 463.523 131.526 462.364 129.57 462.888Z"
         fill="#154F69"
         id="path427" />
      <path
         d="M126.323 471.155L122.382 472.211C122.215 472.255 122.042 472.267 121.871 472.244C121.7 472.222 121.535 472.166 121.386 472.08C121.236 471.993 121.105 471.879 121 471.742C120.895 471.605 120.818 471.449 120.774 471.282C120.729 471.116 120.718 470.942 120.74 470.771C120.763 470.6 120.819 470.435 120.905 470.286C120.991 470.137 121.106 470.006 121.243 469.901C121.38 469.796 121.536 469.719 121.702 469.674L125.643 468.618C126.344 468.431 127.064 468.846 127.251 469.547C127.439 470.247 127.024 470.967 126.323 471.155Z"
         fill="#454545"
         id="path429" />
      <path
         d="M66.4455 479.802L55.97 482.609L55.2499 479.922C54.9631 478.851 55.5984 477.75 56.6692 477.463L63.2675 475.695C64.3381 475.409 65.4387 476.044 65.7257 477.115L66.4455 479.802Z"
         fill="#9B9B9B"
         id="path431" />
      <path
         d="M104.105 521.76C116.077 518.552 123.183 506.245 119.975 494.272C116.766 482.3 104.46 475.194 92.4871 478.403C80.5142 481.611 73.409 493.917 76.6171 505.89C79.8252 517.863 92.1318 524.968 104.105 521.76Z"
         fill="#9B9B9B"
         id="path433" />
      <path
         d="M92.487 478.403C91.8731 478.567 91.2729 478.757 90.6854 478.968C102.053 476.914 113.286 483.89 116.33 495.249C119.374 506.608 113.134 518.266 102.262 522.171C102.876 522.06 103.491 521.924 104.105 521.76C116.077 518.552 123.183 506.245 119.974 494.272C116.766 482.3 104.46 475.194 92.487 478.403Z"
         fill="#818181"
         id="path435" />
      <path
         d="M102.589 516.104C111.438 513.733 116.689 504.637 114.318 495.788C111.947 486.939 102.852 481.688 94.0026 484.059C85.1537 486.43 79.9024 495.526 82.2734 504.374C84.6445 513.223 93.7401 518.475 102.589 516.104Z"
         fill="#D3EFFB"
         id="path437" />
      <path
         d="M94.0026 484.059C93.3056 484.246 92.6308 484.474 91.9802 484.741C100.128 483.64 108.019 488.739 110.203 496.891C112.387 505.043 108.103 513.403 100.496 516.524C101.193 516.43 101.892 516.29 102.589 516.104C111.438 513.733 116.689 504.637 114.318 495.788C111.947 486.939 102.851 481.688 94.0026 484.059Z"
         fill="#B1E4F9"
         id="path439" />
      <path
         d="M89.0131 503.928C88.8465 503.972 88.6728 503.984 88.5019 503.961C88.331 503.939 88.1661 503.883 88.0168 503.797C87.8675 503.71 87.7367 503.596 87.6317 503.459C87.5268 503.322 87.4498 503.166 87.4052 502.999C85.7961 496.994 89.3726 490.8 95.3777 489.191C95.714 489.101 96.0724 489.148 96.3739 489.322C96.6754 489.496 96.8955 489.783 96.9856 490.119C97.0757 490.455 97.0285 490.814 96.8544 491.115C96.6803 491.417 96.3936 491.637 96.0573 491.727C91.4507 492.961 88.7072 497.713 89.9415 502.32C90.0316 502.656 89.9844 503.014 89.8103 503.316C89.6362 503.618 89.3494 503.838 89.0131 503.928Z"
         fill="#B1E4F9"
         id="path441" />
      <path
         d="M135.634 512.612C135.468 512.656 135.294 512.668 135.123 512.645C134.952 512.623 134.787 512.567 134.638 512.481C134.489 512.394 134.358 512.28 134.253 512.143C134.148 512.006 134.071 511.85 134.026 511.683L133.886 511.159C133.841 510.993 133.83 510.819 133.852 510.648C133.875 510.477 133.931 510.312 134.017 510.163C134.103 510.014 134.218 509.883 134.355 509.778C134.492 509.673 134.648 509.596 134.814 509.551C134.981 509.507 135.154 509.495 135.325 509.518C135.496 509.54 135.661 509.596 135.81 509.683C135.96 509.769 136.091 509.884 136.196 510.02C136.301 510.157 136.377 510.313 136.422 510.48L136.562 511.004C136.653 511.34 136.605 511.698 136.431 512C136.257 512.302 135.971 512.522 135.634 512.612ZM72.2253 529.602C72.0588 529.647 71.8851 529.658 71.7141 529.636C71.5432 529.613 71.3784 529.557 71.2291 529.471C71.0797 529.385 70.9489 529.27 70.8439 529.133C70.739 528.996 70.662 528.84 70.6174 528.674L70.477 528.15C70.4323 527.983 70.4209 527.809 70.4434 527.639C70.4659 527.468 70.5219 527.303 70.6081 527.153C70.6943 527.004 70.8091 526.873 70.9458 526.768C71.0826 526.663 71.2388 526.586 71.4053 526.542C71.5718 526.497 71.7455 526.486 71.9164 526.508C72.0874 526.531 72.2522 526.587 72.4015 526.673C72.5508 526.759 72.6817 526.874 72.7866 527.011C72.8916 527.147 72.9686 527.304 73.0132 527.47L73.1536 527.994C73.2437 528.33 73.1965 528.689 73.0224 528.99C72.8483 529.292 72.5616 529.512 72.2253 529.602Z"
         fill="#454545"
         id="path443" />
    </g>
    <g
       clip-path="url(#clip4_12036_11540)"
       id="g469">
      <path
         d="M153.987 631.019L115.234 616.133C111.955 614.874 110.456 611.087 111.886 607.677C112.601 605.97 113.913 604.682 115.458 603.976C117 603.271 118.774 603.149 120.413 603.779L152.391 616.062L159.444 610.905L170.243 615.053L162.224 634.183L153.986 631.019L153.987 631.019ZM190.476 645.035L167.92 636.371L175.939 617.241L190.464 622.82L203.161 592.533L211.586 595.769L210.885 611.232L195.849 647.099L190.476 645.035Z"
         fill="#CCCCCC"
         id="path447" />
      <path
         d="M167.485 613.993L174.501 597.257L185.16 585.619L193.586 588.855L172.87 638.272L159.465 633.123L167.485 613.993Z"
         fill="#DCDCDC"
         id="path449" />
      <path
         d="M178.625 634.249L182.065 635.571L179.814 640.94L176.374 639.619L178.625 634.249ZM191.006 639.005L194.446 640.327L192.195 645.696L188.755 644.375L191.006 639.005ZM184.817 636.628L188.257 637.949L186.006 643.319L182.566 641.997L184.817 636.628ZM142.136 620.233L145.576 621.555L143.325 626.924L139.885 625.603L142.136 620.233ZM154.517 624.989L157.957 626.311L155.706 631.68L152.266 630.359L154.517 624.989ZM148.328 622.612L151.768 623.933L149.517 629.303L146.077 627.981L148.328 622.612Z"
         fill="#808080"
         id="path451" />
      <path
         d="M209.605 588.838L196.176 597.206L196.175 597.203L196.173 597.2L192.513 582.272C194.388 581.693 194.855 575.716 196.821 575.883C198.165 575.998 203.405 576.335 204.713 576.837C205.985 577.326 210.368 580.012 211.404 580.792C212.982 581.983 208.651 587.15 209.605 588.838Z"
         fill="#F7B239"
         id="path453" />
      <path
         d="M238.958 570.551L209.605 588.838C208.639 587.125 207.342 585.641 205.787 584.467L219.182 558.235L238.958 570.551Z"
         fill="#2BA5F7"
         id="path455" />
      <path
         d="M207.901 553.51L198.325 581.632C196.386 581.467 194.413 581.684 192.513 582.272L184.51 549.637L207.901 553.51Z"
         fill="#41B3E5"
         id="path457" />
      <path
         d="M235.633 553.522L229.716 561.908L221.384 563.801L216.53 557.13L217.293 546.477L235.633 553.522ZM217.293 546.477L210.603 555.211L201.825 556.287L196.337 551.314L199.21 539.531L217.293 546.477Z"
         fill="#2197D8"
         id="path459" />
      <path
         d="M199.21 539.531L201.824 556.287L184.51 549.637L199.208 539.53L199.21 539.531Z"
         fill="#2BA5F7"
         id="path461" />
      <path
         d="M221.384 563.801L205.787 584.467C204.728 583.67 203.561 583.024 202.318 582.547C201.011 582.045 199.669 581.746 198.325 581.631L201.824 556.287L213.249 556.702L221.384 563.801Z"
         fill="#2197D8"
         id="path463" />
      <path
         d="M217.293 546.477L221.384 563.801L201.824 556.287L217.293 546.477Z"
         fill="#2BA5F7"
         id="path465" />
      <path
         d="M235.633 553.522L238.958 570.551L221.384 563.801L235.633 553.522Z"
         fill="#41B3E5"
         id="path467" />
    </g>
    <g
       filter="url(#filter4_f_12036_11540)"
       id="g477">
      <ellipse
         cx="164.076"
         cy="649.302"
         rx="44"
         ry="7"
         fill="#752CEC"
         id="ellipse475" />
    </g>
  </g>
  <defs
     id="defs531">
    <filter
       id="filter0_f_12036_11540"
       x="-34"
       y="195.5"
       width="458"
       height="515"
       filterUnits="userSpaceOnUse"
       color-interpolation-filters="sRGB">
      <feFlood
         flood-opacity="0"
         result="BackgroundImageFix"
         id="feFlood481" />
      <feBlend
         mode="normal"
         in="SourceGraphic"
         in2="BackgroundImageFix"
         result="shape"
         id="feBlend483" />
      <feGaussianBlur
         stdDeviation="38.75"
         result="effect1_foregroundBlur_12036_11540"
         id="feGaussianBlur485" />
    </filter>
    <filter
       id="filter1_f_12036_11540"
       x="260.741"
       y="559.741"
       width="90.8"
       height="37.8"
       filterUnits="userSpaceOnUse"
       color-interpolation-filters="sRGB">
      <feFlood
         flood-opacity="0"
         result="BackgroundImageFix"
         id="feFlood488" />
      <feBlend
         mode="normal"
         in="SourceGraphic"
         in2="BackgroundImageFix"
         result="shape"
         id="feBlend490" />
      <feGaussianBlur
         stdDeviation="5.95"
         result="effect1_foregroundBlur_12036_11540"
         id="feGaussianBlur492" />
    </filter>
    <filter
       id="filter2_f_12036_11540"
       x="75.1"
       y="451.1"
       width="247.8"
       height="42.8"
       filterUnits="userSpaceOnUse"
       color-interpolation-filters="sRGB">
      <feFlood
         flood-opacity="0"
         result="BackgroundImageFix"
         id="feFlood495" />
      <feBlend
         mode="normal"
         in="SourceGraphic"
         in2="BackgroundImageFix"
         result="shape"
         id="feBlend497" />
      <feGaussianBlur
         stdDeviation="5.95"
         result="effect1_foregroundBlur_12036_11540"
         id="feGaussianBlur499" />
    </filter>
    <filter
       id="filter3_f_12036_11540"
       x="52.3566"
       y="522.234"
       width="98.6184"
       height="39.6288"
       filterUnits="userSpaceOnUse"
       color-interpolation-filters="sRGB">
      <feFlood
         flood-opacity="0"
         result="BackgroundImageFix"
         id="feFlood502" />
      <feBlend
         mode="normal"
         in="SourceGraphic"
         in2="BackgroundImageFix"
         result="shape"
         id="feBlend504" />
      <feGaussianBlur
         stdDeviation="5.95"
         result="effect1_foregroundBlur_12036_11540"
         id="feGaussianBlur506" />
    </filter>
    <filter
       id="filter4_f_12036_11540"
       x="108.176"
       y="630.402"
       width="111.8"
       height="37.8"
       filterUnits="userSpaceOnUse"
       color-interpolation-filters="sRGB">
      <feFlood
         flood-opacity="0"
         result="BackgroundImageFix"
         id="feFlood509" />
      <feBlend
         mode="normal"
         in="SourceGraphic"
         in2="BackgroundImageFix"
         result="shape"
         id="feBlend511" />
      <feGaussianBlur
         stdDeviation="5.95"
         result="effect1_foregroundBlur_12036_11540"
         id="feGaussianBlur513" />
    </filter>
    <clipPath
       id="clip0_12036_11540">
      <rect
         width="390"
         height="844"
         fill="white"
         id="rect516" />
    </clipPath>
    <clipPath
       id="clip1_12036_11540">
      <rect
         width="81.2094"
         height="81.2094"
         fill="white"
         transform="translate(257 501.795) rotate(-11.9355)"
         id="rect519" />
    </clipPath>
    <clipPath
       id="clip2_12036_11540">
      <rect
         width="247"
         height="247"
         fill="white"
         transform="translate(71.5 252)"
         id="rect522" />
    </clipPath>
    <clipPath
       id="clip3_12036_11540">
      <rect
         width="87"
         height="87"
         fill="white"
         transform="translate(44 465.517) rotate(-15)"
         id="rect525" />
    </clipPath>
    <clipPath
       id="clip4_12036_11540">
      <rect
         width="102.884"
         height="108.373"
         fill="white"
         transform="matrix(0.933502 0.358572 -0.386616 0.922241 149.899 517)"
         id="rect528" />
    </clipPath>
  </defs>
</svg>
